<mxfile host="app.diagrams.net" modified="2023-05-12T09:56:25.974Z" agent="Mozilla/5.0 (Windows NT 10.0; Win64; x64) AppleWebKit/537.36 (KHTML, like Gecko) Chrome/112.0.0.0 Safari/537.36" etag="XO_M68Thca_Iiu1Ah3vO" version="21.2.9" type="device">
  <diagram name="Page-0" id="Page-0">
    <mxGraphModel dx="4059" dy="3154" grid="1" gridSize="10" guides="1" tooltips="1" connect="1" arrows="1" fold="1" page="1" pageScale="1" pageWidth="1059" pageHeight="1585" math="0" shadow="0">
      <root>
        <mxCell id="0" />
        <mxCell id="1" parent="0" />
        <mxCell id="2" style="vsdxID=1;fillColor=none;gradientColor=none;image;aspect=fixed;image=data:image/png,/9j/4AAQSkZJRgABAQAAAQABAAD/2wBDAAgGBgcGBQgHBwcJCQgKDBQNDAsLDBkSEw8UHRofHh0aHBwgJC4nICIsIxwcKDcpLDAxNDQ0Hyc5PTgyPC4zNDL/2wBDAQkJCQwLDBgNDRgyIRwhMjIyMjIyMjIyMjIyMjIyMjIyMjIyMjIyMjIyMjIyMjIyMjIyMjIyMjIyMjIyMjIyMjL/wAARCAMgAhYDASIAAhEBAxEB/8QAHwAAAQUBAQEBAQEAAAAAAAAAAAECAwQFBgcICQoL/8QAtRAAAgEDAwIEAwUFBAQAAAF9AQIDAAQRBRIhMUEGE1FhByJxFDKBkaEII0KxwRVS0fAkM2JyggkKFhcYGRolJicoKSo0NTY3ODk6Q0RFRkdISUpTVFVWV1hZWmNkZWZnaGlqc3R1dnd4eXqDhIWGh4iJipKTlJWWl5iZmqKjpKWmp6ipqrKztLW2t7i5usLDxMXGx8jJytLT1NXW19jZ2uHi4+Tl5ufo6erx8vP09fb3+Pn6/8QAHwEAAwEBAQEBAQEBAQAAAAAAAAECAwQFBgcICQoL/8QAtREAAgECBAQDBAcFBAQAAQJ3AAECAxEEBSExBhJBUQdhcRMiMoEIFEKRobHBCSMzUvAVYnLRChYkNOEl8RcYGRomJygpKjU2Nzg5OkNERUZHSElKU1RVVldYWVpjZGVmZ2hpanN0dXZ3eHl6goOEhYaHiImKkpOUlZaXmJmaoqOkpaanqKmqsrO0tba3uLm6wsPExcbHyMnK0tPU1dbX2Nna4uPk5ebn6Onq8vP09fb3+Pn6/9oADAMBAAIRAxEAPwD3+iiigAooooAKKKKACiiigAooooAKKKKACiiigAooooAKKKKACiiigAooooAKKKKACiiigAooooAKKKKACiiigAooooAKKKKACiiigAooooAKKKKACiiigAooooAKKKKACiiigAooooAKKKKACiiigAooooAKKKKACiiigAooooAKKKKACiiigAooooAKKKKACiiigAooooAKKKKACiiigAooqtqF9DptjLdzn5IxnA6sewH1oGk5Oy3JLi5gtITNcTJFGOrO2BWNJ4x0WNtouJH91ibH8q4DVNVudWuzPcP/ALiD7qD0H+PeqNc0q7vofQ0Mkjy3rSd/I9L/AOE00b/nrN/36aj/AITTRv8AnrN/36avNKKn28jb+xcP3f4f5Hpf/CaaN/z1m/79NR/wmmjf89Zv+/TV5pRR7eQf2Lh+7/D/ACPS/wDhNNG/56zf9+mo/wCE00b/AJ6zf9+mrzSij28g/sXD93+H+R6X/wAJpo3/AD1m/wC/TVYtvFOj3ThFvAjHgCVSn6nivLKKft5CeSULaSf4f5HtYIIyDkGivOvC/iOSwuEs7py1m52qT/yyP+Ht2r0Wt4TUldHhYvCzw0+SXyYUUUVZyhRRRQAUUUUAFFFFABRRRQAUUUUAFFFFABRRRQAUUUUAFFFFABRRRQAUUUUAFFFFABRRRQAUUUUAFFFFABRRRQAUUUUAFFFFABRRRQAUUUUAFFFFABRRRQAUUUUAFFFFABRRRQAUUUUAFcT49vG3WlkpO3BlYep6D/2au2rz7x4pGsQE9DAMf99NWVZ+4z0cqipYqN/P8jlaKKK4z68K17DS7e5skmP2iZ2Zg62+0mIDoSp5bPXisitC11T7OkIazglkgbdFI24MvOecEZ59aqNr6mNdTcfc3/r+v6sStopMFrJFcREyxtI29tu0Bsf596dFoFx9pWO4lhiTzliLF+SWAI2jHPBpItfmjQBoI3cKyF9zKxDNuPIPHPpTbjXJ7iWOQxRqUmWYYyeVUKOp9qfumH+03t66/kULmEW91LCHDhHKhgeDioqkuJRPcSShAm9i20EkDP1qOoOyN7K4UUUUDCvV/Dl217oFpK5y4XYxPcqcZ/SvKK9L8GKV8NxE95HI/wC+jW9B+8eNncU6MZdb/odBRRRXUfMBRRRQAUUUUAFFFFABRRRQAUUUUAFFFFABRRRQAUUUUAZOv6/b+HrOK5uYpZVkk8sCIDOcE9yPSue/4Wbpf/Pje/kn/wAVS/E3/kBWf/X0P/QGry+u/D4eFSHNI83FYmpTqcsT0/8A4Wbpf/Pje/kn/wAVR/ws3S/+fG9/JP8A4qvMKK3+p0jn+vVj0/8A4Wbpf/Pje/kn/wAVR/ws3S/+fG9/JP8A4qvMKKPqdIPr1Y9P/wCFm6X/AM+N7+Sf/FUf8LN0v/nxvfyT/wCKrzCij6nSD69WPT/+Fm6X/wA+N7+Sf/FUf8LN0v8A58b38k/+KrzCij6nSD69WPT/APhZul/8+N7+Sf8AxVH/AAs3S/8AnxvfyT/4qvMKKPqdIPr1Y9P/AOFm6X/z43v5J/8AFUf8LN0v/nxvfyT/AOKrzCij6nSD69WPT/8AhZul/wDPje/kn/xVH/CzdL/58b38k/8Aiq8woo+p0g+vVj0//hZul/8APje/kn/xVH/CzdL/AOfG9/JP/iq8woo+p0g+vVj13SPHdhrGqQ2ENrdRyS52s4XAwCex9q6mvGfBH/I46f8AV/8A0W1ezVw4mnGnO0T0MJVlVhzS7hRRRXOdQUUUUAFFFFABRRRQAUUUUAFFFFABRRRQAUUUUAFct4301rnTo7yNctbE7/8AcPU/gQP1rqaRlDKVYAqRgg9DSlHmVjahWdGoqkeh4rRXWa54Ont5Wn0xDLAefKH3k9h6j9a5h7aeNtskMiN0wykH9a4ZQcXqfY0MXSrx5oP/ADIqKf5Un9xvyo8qT+435UrG/NHuMop/lSf3G/KkCMxYBSSvUDtRZhzx7jaKf5Un9xvyo8qT+435UWDmj3GUU/ypP7jflU9tpl7eSBLe1lkJ9FOPz6CizFKpCKu2iCGKSeZIolLyOwVVHcmvXtNsxp+m29oDnykAJ9T3P55rE8N+F10oi6uyr3ZHygciP6ep966WuqlT5Vdny+aY2OIkoQ+FfiwooorY8oKKKKACiiigAooooAKKKKACiiigAooooAKKKKACiiq731rHepZvcRrcyLvSIthmHqKAucj8Tf8AkBWf/X0P/QGry+vUPib/AMgKz/6+h/6A1eX162D/AIR4uO/jBT44pJW2xxu5HOFUk/pTK6C6zB4N057QsqyzSfanTglx90MfTHQV0Sla3mc0Y3v5GIbW4ETSmCURoQGcoQAT2JqKuptLiS50G9OprLKoa1QDftZly2Dk5qRfDNkt7cW0nngedOkMhcDIRMjAAOSD1zgelZ+1SvzGnsW7OJyVFdK2jaebI7UuFnOmi93NICA2cFcY6U6TQ9LXbD57pLIYFhcyjMhcDcSmMqBmq9rEXsZHMUVs6xp9nZwkQLcpPFO0UgkU7SOxyQOeOnSryaNpkkdvDtuUmn09rsSmUFUYAnBGOhx60e0VriVJt2Ocmglt3CTRPGxAba6kHB6Hmk8mXyPP8t/K3bN+Pl3dcZ9a6260+C+vopLpZDGtpaJuD7QCwA54JJ9AB9ahj0Kz85LaR7kp/axtCPMABXHDYx196lVlbUp0HfQ5WitjVLCzg063urVZULzywMsjhs7MYPQY69KNBigkTU2mtxMY7J3TJPByBx+dXzrl5iOR83KY9FdHeaRp+no8csd1LPGkUgKAhZA2MjOMDrwRmr8Wjada+INLSO2kmt7h2bdJJkDA/wBWQP4lPX+VS60bXKVGV7HG0U+XHnPtTYM8LnOKZWpkdB4I/wCRx0/6v/6LavZq8Z8Ef8jjp/1f/wBFtXs1eXjf4i9D18B/CfqFFFFcZ3BRRRQAUUUUAFFFFABRRRQAUUUUAFFFFABRRRQAUUUUAFFFFABRRRQBU1O/i0vTbi+nP7uFCxHqew/E8VR8M2E1ppZnu/8Aj9vHNxcH0Zui/gMCqmq/8TnxHaaOvNtaYu7z0J/5ZofqecegrpKt6Rt3M170r9goooqDQKKKKACiiigAooooAKKKKACiiigDK1rWjpBtY0s5bua6kKRxxkAkgZPWqX/CQ6r/ANCvff8Af2P/ABo8Q/8AIf8ADn/X0/8A6LNdFV6JLQz1bepzv/CQ6r/0K99/39j/AMaP+Eh1X/oV77/v7H/jXRUUuZdh8r7/AJHO/wDCQ6r/ANCvff8Af2P/ABo/4SHVf+hXvv8Av7H/AI10VFHMuwcr7/kc7/wkOq/9Cvff9/Y/8aP+Eh1X/oV77/v7H/jXRUUcy7Byvv8Akc7/AMJDqv8A0K99/wB/Y/8AGj/hIdV/6Fe+/wC/sf8AjXRUUcy7Byvv+Rzv/CQ6r/0K99/39j/xrz7x9qF3d6vaTTWE9hIkOFWRwSfmPIINex1zWveD4PEOs213dzstvDFsaJBguck9ew5rajUjGd2jGvSnOFkzzO88Sanq+hw2d8pmjhnDLckHOdrDaT0PXPrx3rKr0n4hWdtYeGbC2tIUhhS6GEQYH3GrzavRw8lKF0rHl4mMoztJ3YVPb311aBxbXEsQf7wRiA31FQUoxkZJA74FbtX3OdNrYtJqd9GsirdzASMHcbz8xHQn1qT+29V3E/2jdZLbifNPJ6ZrXvtFja6vpr3UZnNu8CMywDLB144yBxTn8NQiL7Gjs162om1EpGFwFznH0Oax56fU39nU6GKdZ1In5r64YFPLOXPK/wB36Vp3/iU3NrLDF9qCSoE8maRXjjHH3eM8Y45qjdaZEmmfb7a4eSNZzbyLIm1g2Mg9TwRTjpdrbwxG7u5I5ZbcXCqkW4FSeFznrjJ9KbUHrYSdRXVyldX95e7PtV1NPsGE8xy20e2avajrJubOztbZriKKGAQurOMPg5zx/L2q43hyBL4QvdyiGWSFLaYRAiXzBnOM9AKvaHpMFtq1rdWt20yJdPazLJFtwdjEEcnIOKmU4Wv2HGnUvZ9Tnf7Z1PJP2+5yVCEiQ8qOg+go/trVM5/tC5zv8zPmH73r9fetD/hH4pLaO8iu2Nq0LzOzoFYbX24645JHOaH0PT4rSe7OqM8EboitFCGyWUkfxdiMGq5qf9IXJU/pmab+a5j8q9url4QxcKCCNx6nBpqXP2R/MsJ7mKQgqzZCnB7cGo7OJJr2CKXdseRVbb1wTjit650GyF9cs139ktPtb20ZbB2lepOT05HTmnJxi7MmMZSV0Yw1XUBFDEL248uFg0aeYcIfUDtQuqX6KFS8nVRJ5oAcjD/3vr71otoloNFk1JbyV0iYxSKsXSTIwBz909c1Br1na2V1bxWocBraKRt+OSyg5oUoN2SG4zSu2Zkksk0rSSuzyMcszHJJptFFaGR0Hgj/AJHHT/q//otq9mrxnwR/yOOn/V//AEW1ezV5eN/iL0PXwH8J+oUUUVxncFFFFABRRRQAUUUUAFFFFABRRRQAUUUUAFFFFABRRRQAUUUUAFVr+9h07T57yc4ihQu3vjtVXxFNc23h2/ntHMc8ULOjAZxjn+VeZL45l1VbKy1xQbSOdZJ5Il5lC8gFemM4zj8q2p0XNXRhVrxpvle7PRPC9lNBpz312P8ATdQf7RN/s5+6v0AwPzrcqrYajaanarc2U6TQnjcp6H0PoatVnJtvU1ikoqwUUUVJQUUUUAFFFFABRRRQAUUUUAFFFFAHO+If+Q/4c/6+n/8ARZroq53xD/yH/Dn/AF9P/wCizXRVctkRHd/10QUUUVBYUUUUAFFFFABRRRQAUUUUAcT8Tf8AkBWf/X0P/QGry+vUPib/AMgKz/6+h/6A1eX162D/AIR4uO/jBSg4IOAcdjSUV1HIasviG+n87zBbt5xRpP3K/MU+7+VEniLUpGkbzUVnmE5ZY1BEg43A446dqyqKnkj2L9pPuW7vUrm9TZKUVN5kKxoEBc9WIHepl1i7ezispZlECjyw/lKXRCeQG649s1nUUcq7C55b3N0apbrqWlRC5mew09wyyPHhm+bccKDx2AqObX7qHUmmtHiEaTPLHiEAEtxuI9ccc1jUUvZxH7SXQ1YvEOoQLCsTQokSsiqIVwVY5YEHqCeeajl1i7ubeW2laHyZnVmxEBtI4GMdAB2FZ1FPkj2Fzy2uWhHDCRJHeoZEO5cRsOR07Vc/4SXU907GSEiZt7KYEKh/7wGOG96yaKHFPfUFNrbQ0o9cvYwVBiKtCYWVogQyk5OR3JPOetV7zULi+EP2hlYxII1IQA4AwMkdePWqtFCik72Bzk1ZsKKKKok6DwR/yOOn/V//AEW1ezV4z4I/5HHT/q//AKLavZq8vG/xF6Hr4D+E/UKKKK4zuCiiigAooooAKKKKACiiigAooooAK5XVPHmmaVqU1jJb3UkkJAZo1XbnGe7D1rqHdY42dzhVBJPoK8Cvbpr6/uLtjzNK0n5nNdOGoqo3zbHJi68qUVy7s9K/4WbpX/Plff8AfKf/ABVH/CzdK/58r7/vlP8A4qvLqK7fqdI4Pr1Y9R/4WbpX/Plff98p/wDFUf8ACzdK/wCfK+/75T/4qvLqKPqdIPr1Y9R/4WbpX/Plff8AfKf/ABVH/CzdK/58r7/vlP8A4qvLqKPqdIPr1Y9JvviJpN5YXNsbO9/fRNHyqdwR/erzzSotNFzv1UXRiHIjtwuW+pJGKhorSFCME1HqZzxE6jTl0PSLDx74f0y1W2stLu4YV52qicn1Pzcn3qz/AMLN0r/nyvv++U/+Kry6is3hKbNFjaq0Vj1H/hZulf8APlff98p/8VR/ws3Sv+fK+/75T/4qvLqKPqdIPr1Y9R/4WbpX/Plff98p/wDFUf8ACzdK/wCfK+/75T/4qvLqKPqdIPr1Y9R/4WbpX/Plff8AfKf/ABVH/CzdK/58r7/vlP8A4qvLqKPqdIPr1Y9R/wCFm6V/z5X3/fKf/FV0Gg69b+ILOS5toZokSTy/3oAycA8YJ9a8Or2fwZZfYvClkpGHlUzN/wACOR+mK5sTQp043judWExFSrNqWxv0UUVxHoBRRRQBzviH/kP+HP8Ar6f/ANFmuirnfEP/ACH/AA5/19P/AOizXRVctkRHd/10QUUUVBYUUUUAFFFFABRRRQAUUUUAct470i+1jSbaGwg86RLgOy7gvG1hnkj1FcF/whHiP/oGn/v9H/8AFV7NRXRTxM6ceVHLVwkKsuaTZ4z/AMIR4j/6Bp/7/R//ABVH/CEeI/8AoGn/AL/R/wDxVezUVp9dqdkZ/UKXdnjP/CEeI/8AoGn/AL/R/wDxVH/CEeI/+gaf+/0f/wAVXs1FH12p2QfUKXdnjP8AwhHiP/oGn/v9H/8AFUf8IR4j/wCgaf8Av9H/APFV7NRR9dqdkH1Cl3Z4z/whHiP/AKBp/wC/0f8A8VUdx4P1+1tpbibTysUSF3bzUOABk/xV7VWdr/8AyLup/wDXrL/6CaaxtRu1kJ4Cmle7PJoPB2v3NvHPFp5aORQ6HzUGQRkfxVJ/whHiP/oGn/v9H/8AFV6vof8AyL+m/wDXrF/6CKv0PG1E9kCwFNq92eM/8IR4j/6Bp/7/AEf/AMVR/wAIR4j/AOgaf+/0f/xVezUUvrtTsh/UKXdnjP8AwhHiP/oGn/v9H/8AFUf8IR4j/wCgaf8Av9H/APFV7NRR9dqdkH1Cl3Z4z/whHiP/AKBp/wC/0f8A8VR/whHiP/oGn/v9H/8AFV7NRR9dqdkH1Cl3Z5l4V8K61p3iWzu7uyMUEZfc5kQ4yjAcA56mvTaKK56tV1HzSOmjRjSjyxCiiiszUKKKKACiiigAooooAKKKKACiiigDD8YXv2HwrfSBsO6eUv1b5f5E14rXqnxBQ3NjZ2v2mKBHnG5pM4LYIUcA+pP4Vww8MXn2m3t3lhjlnne3Ctu+V1AJBwOhyMEV6WEcYwu+p5ONUp1LLoYlFby+HBNbWRgvIvOnilmcSbgAEJBwcexqF/Ds6273C3VtJCLc3KuhbDoG2nHHUE9Diuv2ke5x+yn2MeityXw8LWxvZri6QyQJC6BAxDCTkZ49Ky5EWzvAA8F0qYYlCSjcZx2PtTU1LYUoOO5Xortm0azuJb8W9lbiGezSewY5yGIJKDnk/K35VQtLS0eC6tJLe2SWHTvMkmdTlZCwOT1xhSBwPWs1WTNHQa6nMUVtJ4auXvjaC4t958vYQWO8OMqQAM49SRxUN9pcdlpVpcmfdPNJIjJg4GwgcH65q+eLdiHTkldoy6K2bbw5Pdx27xXUBE8TyoMOfufeXp972qEaLILYXMlzBHDtQs7bvkL/AHVIx1wM8dqOeIezl2Myitp/DN3FKkcs0CO90LXkk4Yjcp4HQgjn3qd9IabS7O2iihF0Lu4iklAxlUCkkn0HNHtIj9lLsc9RWzq1tbwaRpDw+SzSJLvliUjfhsDOecimSaDNG6gXMLo1sLlZFDbWUnAA4654+tCmrXE6bvYyaK2V8N3LSSRi4ty8MqwzqCxMTMcDPHIzxkZ5qveaPNZWj3DyxMqXLWzKuch15PUdKanF6XE6ckrtFO1t2vLyC1TO6aRYxj3OK9+ijWGJIkGERQqj0AryDwJZfbPFduxBK26tMfwGB+pFexV52Nleaj2PUy+FoOXcKKKK4jvCiiigDnfEP/If8Of9fT/+izXRVzviH/kP+HP+vp//AEWa6KrlsiI7v+uiCiiioLCiiigAooooAKKKKACiiigAooooAKKKKACiiigAooooAKz9dBbw9qQHU2sv/oJrQrzrxb4y1TTLy90mWwgEUqMscmWyyMCAevX+orSnBzlZGVWpGEbyO00Fg3h7TWHQ2sf/AKCK0a818JeMdUvriw0a3sIGjiRUeTLZVFABbr1x+telUVYOErMKNSM43iFFFFZmoUUUUAFFFFABRRRQAUUUUAFFFFABRRRQAUUUUAFFFFABRRTXdY42dzhVBJPoKAPMfGev7tcuLB7eOe3gaNlDEqVkAyTkducEe1Y8Pim4SZJ57aCeaO5a5R2LDazAAjAPTgVkXt019f3F2x5mlaT8zmoK9qnRioJNHg1K0nNyTOo0XWYpZY4rqO1hSCCdUd5Cud4OE5PqetZ8evyRL5H2WJrQW7W3kFjjazbidw5zkVj5xyRkelb+o6ZDb3F6beyaS3ihgfcZ8eUWCkn1bOcUOMU9ev8AX6iU5uOnT+v0IrnxHJdRXMcllBsnijjIBb5fL4U9ayrmWOecyRwJAhAAjQkgce/PPWtfWtDa21S4SzixbLIscamQFmYqDgAnLde1Zt1p11ZxxyTRgRyEqrq4YEjqMg9R6VUOSy5SaindqXQtQa/ewRadGjDbYSmSLPfJzg+3X8zTYNYeObUJZYFme+RkcliNoJycY+gpbjQ7mEwhGik3263DFZFART6kngdOfeqlxZXNpdfZpomWY4wvXdnoRjrn2oSg9gbqLc2R4rdWVhp8GVMRB3tnMYwucHke3SqF9rBvrRbdrWKMJK8iMpbK7zkjk+vehdA1ORkVLbeXLKNsikblGSp54IHamPo1/G6q0IAaPzQ/mKU2ZxndnA5460kqaeg26rWv5Eljrt5p9otvAVCrOs4JHII6j6HAz9KU65LKL1LmCOaG7kEjR5K7GHTaR0wOPpS/8I5qv7zNsFEbbWLyooBxu6k+nNM/sHUftUtr5KedFt3r5qcbvu9+c0fu730D96lbUtJ4nuPNaSe1gmP2hLiPJYCNlG0AYPIwAOaVPE8sTRtHZwqVmllYFmIfzBhlI9MVHB4Z1GS8t4JkSFZpTF5hdWCsOSDg8HHY1mx2c092baFRJJz91gRgdTnpj3oUab2G5VVuWL7UlvLS2tktI4Irffs2szH5jkg5NXLu+e00a102O7hnZZfO3w5OwcEJkj1ycVWTQNSlbCW4YGPzQwkXaUzjIOcEZ/KqEsTwTPFIAHRirAEHke4ppRei6EtzV21ua0viKd5pp4oIoZriRJJ3XJ3spyOD0BPJpmo64dQtJLf7HDCr3BuSVZid5GD1NZNFNU4roJ1JPS56N8MbLEN/fMPvMsKn6DJ/mPyr0CsDwXZfYvClkpGHlUzN/wACOR+mK368etLmqNnuYeHJSigooorI2CiiigDnfEP/ACH/AA5/19P/AOizXRVzviH/AJD/AIc/6+n/APRZroquWyIju/66IKKKKgsKKKKACiiigAooooAKKKKAMrXtetvD1pHc3Uc0iSSeWBEATnBPcj0rA/4WZpH/AD533/fKf/FU34m/8gKz/wCvof8AoDV5fXfh8PCpDmkebicVUp1OWJ6l/wALM0j/AJ877/vlP/iqP+FmaR/z533/AHyn/wAVXltFb/U6Rz/Xqp6l/wALM0j/AJ877/vlP/iqP+FmaR/z533/AHyn/wAVXltFH1OkH16qepf8LM0j/nzvv++U/wDiqP8AhZmkf8+d9/3yn/xVeW0UfU6QfXqp6l/wszSP+fO+/wC+U/8Aiq53xd4l0XxJpypHa3cd5EcwyMiY9wfm6f1FcfRTjhacXdCljKk1ys67wh4k0bw3YOJbW7kvJjmSRETAA6KMt0rpP+FmaR/z533/AHyn/wAVXltFEsLTk7sUMXUhHlR6l/wszSP+fO+/75T/AOKo/wCFmaR/z533/fKf/FV5bRS+p0ivr1U9S/4WZpH/AD533/fKf/FUf8LM0j/nzvv++U/+Kry2ij6nSD69VPUv+FmaR/z533/fKf8AxVH/AAszSP8Anzvv++U/+Kry2ij6nSD69VPXtJ8dadrGpw2EFvdpLLna0irt4BPZj6V1FeM+CP8AkcdP+r/+i2r2auHE04052iejhKsqsOaXcKKKK5zpCiiigAooooAKKKKACiiigArD8YXv2HwtfSBsO6eUv1b5f6mtyuC+J17ts7GxU8yO0rD2UYH/AKF+la0Y81RIyrz5KcmebUUUV7Z8+HB69O+K6G41yxnN/wDublRdQQw/w/Lsxz7521z1FTKKluVGbjsdTfeKbS7vob4WkoubaUPASVxt4yjY6jOSD1GaydW1G3vNq2q3ax7i5FxP5mCey9gP1rMoqY04x2KlVlLc3/7etXs/s0ltNiSzS1lYOOChyrLx+YNU7jWGk1GyuYo8LZJGkSuckhOefqaIdJZ9FvL+VZ4zD5ZjymFcM2Opqm9ldI0avbTK0n3AYyC309aUYwu7DlKdlc318RWKamt0sF8Uy7tHJcbwrMpXCg8Acn36VHFr1iunRWEltcSQfZmgkIZVb7+8MvXoexrHXTb5pCi2VyXXGVETEjPTtSHTr5ZfKayuBJt37DE2dvrjHSj2cB+0qf0i9LqFnNpEmnQQTKz3CyIWYEcLtwT6nOfStWS4n+2aLp80aC8jljNyyMGJCNhAxHHC5P5Vzw0u/LxobK4UyP5aboyAW9MmtG38Ob7tLK4uRFcyTPCqKm7aVGdzcghT2OKUlBdRxc30L0+txaTrE0UcErIuom5l3sATjIAXH1Jz9Kx7DUYLDUpZVgd7WWN4WRmG/YwwecYzWcRtJHHBxxSVSpxSIdWTdzoIddtYtOaw8qcwi2kgRsruy7Bix9uAMVz9FFVGKjsTKbla4VLa27Xl3DbJndNIsYx6k4qKuk8CWX2zxXbsQSlurTH8BgfqRSqS5YOQ6UOeaievxRrDCkSDCIoVR6AU+iivCPogooooAKKKKAOd8Q/8h/w5/wBfT/8Aos10Vc74h/5D/hz/AK+n/wDRZroquWyIju/66IKKKKgsKKKKACiiigAooooAKKKKAOJ+Jv8AyArP/r6H/oDV5fXqHxN/5AVn/wBfQ/8AQGry+vWwf8I8XHfxgoorV/s+C00W31C7Ekj3TsIYkbaAq8FicHvwBXS2kcqi2ZVFaL2CXjq+mo/khFEhnkUbJCT8u44B9qbJot/FGHkgCAzfZ8M6giT+6RnIpc6HyS7FCir/APYuoESEQBvLDMQsikkKcEgZ5APcVbi8L6gRKbhY4FjhaX55VycDI4z3yOaHOK6jVOb6GLRV3+yL825mW3LIApIVgWAY4U7Qc4PY4q5daSLTw/8AaZo9t0LvySRKGGNpOCB0INDnEShLexjUVowaDqVzBHNDbbklVmj+dcuB1wM5P0psmjX8TorwgB4zKH8xSm0HBO7OBzx1o549w5Jb2KFFaLaHqMbsklvsZSR8zqN3y7vl5+bjnimro1+5jCwZaQqFUOu7LLuGRnI4GeaOePcOSXYoUVeOj3wkCGEcxedv3rs2dN27OMZ46086FqQnMDW2x8qPndQCW+6AScHPajnj3Dkl2M6inyxPDK8UqFJEYqysMEEdRTKok6DwR/yOOn/V/wD0W1ezV4z4I/5HHT/q/wD6LavZq8vG/wAReh6+A/hP1CiiiuM7gooooAKKKKACiiigAooooAK8g8fXv2vxTLGDlbaNYh9fvH/0L9K9dd1jRnY4VQST6CvAr66a+v7i7Y8zStJ+ZzXbgo3m5djgx87QUe5BRRRXpnkhRRRQAUqkBgSMgHJHrSUUAddJrmli4v7pJpXFy8Eq2zRHCbGBK5zjGBgUh1vTkupI/ttzLaT+aeLdUMBdcbuOWb+lclRWXsYm3t5HRjVbeHSb21j1O5klKRJC7Ky5CMTgY+6MHAovLyRNAtjcQyx6k4NsJHBBaAEMD69SFz6CucqV7meSVZXnlaRQArs5JGOmDT9mri9q7HX6tqsOn6xqcUs8k5luYG8oqcRBCGJ579hisO6u7X+0NVuba6cGfd5R8ogtubLDr8vHGe/NZc081xIZJ5Xlc8bnYsfzNR0o0lFBOq5MKKKK1MgooooAK9G+GNliG/vmH3mWFT9Bk/zH5V5zXs/guy+xeFLJSMPKpmb/AIEcj9MVyYyVqdu52YGF6t+xv0UUV5R7IUUUUAFFFFAHO+If+Q/4c/6+n/8ARZroq53xD/yH/Dn/AF9P/wCizXRVctkRHd/10QUUUVBYUUUUAFFFFABRRRQAUUUUAcT8Tf8AkBWf/X0P/QGry+vUPib/AMgKz/6+h/6A1eX162D/AIR4uO/jBWqmp28+jw6dfRSkW7s0EsJGVDdVIPUd6yqK6XFM5VJrY1o9Ts/7On057aVbd5ElR0YFwwBBzng5B7dKsnxM7XeozPAGF0FaJSf9U68I3uQM1gUVPs4le1ktjcGuQvpcEEkd2LiCIwqYp9sbqSeWXqSMn61JJrtm+q3Nz9nnMNxZ/ZWXKhh8oXI7dq5+il7OI/ayOk/4SeJXtrmOC5F1EsalDP8AuWCYwdvrgD271Uv9UsZ9PntbW3uEMt19pzI6kKSMEcDnrWNRQqcVsDqyaszobHXrO1TS98NwzWSTK23bh/Mz09MZp9t4hs7eyt7MwXRiWBoJGRwj8vvDKR0IPY1zdFDpRYKtJf1/XY6GPxBbRrKjRXU0bZBinkEiyDbhSSeVYHnK/Slj1+xC2yXFpLcrCVKmUruQBSCA38QyQQG6YxXO0UeyiHtpHZWOow6q77Ybl/JsjbuhdC0wL5BCnAOOp9OKivdXtraSa2uGvXEuyXMTrFLCyjaEO3Ixtx9K5Kip9irle3lYkuJfPuZZsEb2LYLFjz7nk1HRRWxidB4I/wCRx0/6v/6LavZq8Z8Ef8jjp/1f/wBFtXs1eXjf4i9D18B/CfqFFFFcZ3BRRRQAUUUUAFFFFABRRRQBh+L737B4WvpA2HdPKX6t8v8AU14rXuHiHQk8QWMdpJcSQosgkJQA7sAjBz9a5r/hWNl/0Ebj/vha7sNWp04vm3PPxdCpVmnFaI80or0v/hWNl/0Ebj/vhaP+FY2X/QRuP++Frp+t0u5yfUq3Y80or0v/AIVjZf8AQRuP++Fo/wCFY2X/AEEbj/vhaPrdLuH1Kt2PNKK9L/4VjZf9BG4/74Wj/hWNl/0Ebj/vhaPrdLuH1Kt2PNKK9L/4VjZf9BG4/wC+Fo/4VjZf9BG4/wC+Fo+t0u4fUq3Y80ors/EvhDTfD2kvdvqE7ysdsMZVfnb/AAHeqnhHw3p/iW0l3300V3CfnjCqQVPQj+VV9Yhy83Qj6tU5+TqcvRXpf/CsbL/oI3H/AHwtH/CsbL/oI3H/AHwtT9bpdy/qVbseaUV6X/wrGy/6CNx/3wtH/CsbL/oI3H/fC0fW6XcPqVbseaUV6X/wrGy/6CNx/wB8LR/wrGy/6CNx/wB8LR9bpdw+pVux5za27Xl3DbJndNIsYx6k4r36KNYYUiQYRFCqPQCuT0rwBZ6XqcF8LyaVoW3KjKACccV19cWKrRqNcux34OhKknzbsKKKK5TsCiiigAooooA53xD/AMh/w5/19P8A+izXRVzviH/kP+HP+vp//RZroquWyIju/wCuiCiiioLCiiigAooooAKKKKACiiigDifib/yArP8A6+h/6A1eX16h8Tf+QFZ/9fQ/9AavL69bB/wjxcd/GCiiiuo5AooooAKKKKACiiigAooooAKKKKACiiigAooooA6DwR/yOOn/AFf/ANFtXs1eM+CP+Rx0/wCr/wDotq9mry8b/EXoevgP4T9QooorjO4KKKKACiiigAooooAKKKKACiiigAooooAKKKKACiiigAooooA8y8a6Nq2s+KEgE1uYhbtLCm4jy41xktx1J4/AVW8I+FNdgmsNbsri0WKQBirO2WQ9QRj09/Sut03/AImFzr2sHlG3Wtucf8s4wckexbP5Ve8H/wDIoaX/ANcBXU60ow5TjVCMqnO/U26KKK5TsCiiigAooooAKKKKACiiigAooooAKKKKAOd8Q/8AIf8ADn/X0/8A6LNdFXO+If8AkP8Ahz/r6f8A9Fmuiq5bIiO7/rogoooqCwooooAKKKKACiiigAooooA4n4m/8gKz/wCvof8AoDV5fXt3iLQIvEVlFbSzvCI5fMDIAcnBGOfrXOf8Kxs/+glP/wB8LXoYfEQhDlkebisNUqVOaK0PNKK9L/4VjZ/9BKf/AL4Wj/hWNn/0Ep/++Frf63S7nN9SrdjzSivS/wDhWNn/ANBKf/vhaP8AhWNn/wBBKf8A74Wj63S7h9SrdjzSivS/+FY2f/QSn/74Wj/hWNn/ANBKf/vhaPrdLuH1Kt2PNKK9L/4VjZ/9BKf/AL4Wq9/8ObW0066uV1CdmhieQAoOSATR9bpdw+pVux55RXoGmfDy1v8ASrS7bUJlaeFZCoQYBIzVv/hWNn/0Ep/++FoeLpLqCwdZ62PNKK9L/wCFY2f/AEEp/wDvhaP+FY2f/QSn/wC+Fo+t0u4fUq3Y80or0v8A4VjZ/wDQSn/74Wj/AIVjZ/8AQSn/AO+Fo+t0u4fUq3Y80or0v/hWNn/0Ep/++Fo/4VjZ/wDQSn/74Wj63S7h9SrdjlPBH/I46f8AV/8A0W1ezVyWjeBLbR9Vgv0vZpGh3YVlABypH9a62uDE1I1J3iejhKUqcGpdwooornOoKKKKACiiigAooooAKKKKACiiigAooooAKKKKACiiigBskiQxPLI6pGgLMzHAAHUmsjWtZit/Dlze2c0czFNkJjYNl24XGPc1q3EKXNvLBIMpIhRh7EYr58kF1puoyQJI6zQTY+X+8p4P510UKSqPfY5sTWdJLTc9xtNPXSvC62S9YbYhj6tgkn881F4Q/wCRR0v/AK4LWf4dfxBL4fupdcZcNCfJVlxIBg8tj8PetHwj/wAijpf/AF7rUSVk7vqXBptNK2n+RtUUUVkbBRRRQAUUUUAFFFFABRRRQAUUUUAFFFFAHO+If+Q/4c/6+n/9FmuirnfEP/If8Of9fT/+izXRVctkRHd/10QUUUVBYUUUUAFFFFABRRRQAUUUUAFFFFABRRRQAUUUUAFFFFABVHWv+QDqP/XtJ/6CavV534s8aajpt3e6TNp0QjkRljk3H5kYEBv8960pwc5WRlVqRhG8jsfDn/ItaZ/16x/+gitOvN/CXjPUb2fT9Gt9OhZI0VHk3HIRQAW/L9a9IoqwcJWYUakZxvEKKKKzNQooooAKKKKACiiigAooooAKKKKACiiigAooooAKKKKACsvxFqZ0jQbu8UgSImI8/wB88D9TWpXnvxN1HCWWmo3UmeQfThf/AGb8q0ow55qJlXqezpuRzP8AwmniP/oKP/36j/8AiaP+E08R/wDQUf8A79R//E1g0V7Hsaf8qPD9tU/mf3m9/wAJp4j/AOgo/wD36j/+Jo/4TTxH/wBBR/8Av1H/APE1g0Uexp/yoPbVP5n95vf8Jp4j/wCgo/8A36j/APiaP+E08R/9BR/+/Uf/AMTWDRR7Gn/Kg9tU/mf3m9/wmniP/oKP/wB+o/8A4mstNRvE1VtTEwN4zFjIY1PzeuCMZ/CqtFNU4LZCdWb3bNyTxj4hkjdH1NyrKQR5Scj/AL5qKy8V67Z2UNtb6g8cMahUURocD8RWQehpsf8Aq1+lL2UP5UP21Tfmf3nQf8Jp4j/6Cj/9+o//AImj/hNPEf8A0FH/AO/Uf/xNYNFHsaf8qD21T+Z/eb3/AAmniP8A6Cj/APfqP/4mj/hNPEf/AEFH/wC/Uf8A8TWDRR7Gn/Kg9tU/mf3m9/wmniP/AKCj/wDfqP8A+Jo/4TTxH/0FH/79R/8AxNYNFHsaf8qD21T+Z/eb3/CaeI/+go//AH6j/wDia9G8F3Wo32gi81K4aZ5pGMZKhcIOOwHcGvHoYXuJ44IhmSRgij1JOBXvdhaR2Fhb2kX3IY1QfgMVx4xQikoo78C5zk5SbsixRRRXnnpBRRRQAUUUUAc74h/5D/hz/r6f/wBFmuirnfEP/If8Of8AX0//AKLNdFVy2REd3/XRBRRRUFhRRRQAUUUUAFFFFABRRRQAVzereNtM0bUZLG4humljAJMaKRyM92HrXSV4748/5G+8/wB2P/0AV0YanGpO0jmxVWVKHNE7D/hZWjf8+99/37X/AOKo/wCFlaN/z733/ftf/iq8roru+p0jz/r1XyPVP+FlaN/z733/AH7X/wCKo/4WVo3/AD733/ftf/iq8roo+p0g+vVfI9U/4WVo3/Pvff8Aftf/AIqj/hZWjf8APvff9+1/+Kryuij6nSD69V8j1T/hZWjf8+99/wB+1/8Aiq53xf4j0TxHpyrFBdpeQnMTtGuCD1U/N0/wrjaKccLTi7omeMqTi4ux1/g7xDovhywczQXcl7Mf3jpGuAB0UZb8a6X/AIWVo3/Pvff9+1/+KryuiiWFpyd2EMZUhHlVj1T/AIWVo3/Pvff9+1/+Ko/4WVo3/Pvff9+1/wDiq8ropfU6RX16r5Hqn/CytG/5977/AL9r/wDFUf8ACytG/wCfe+/79r/8VXldFH1OkH16r5Hqn/CytG/5977/AL9r/wDFUf8ACytG/wCfe+/79r/8VXldFH1OkH16r5HsGleONM1fUobG3hulllztMiKBwCezH0rpq8Z8Ef8AI46f9X/9FtXs1cOJpxpztE9DC1ZVYc0u4UUUVznSFFFFABRRRQAUUUUAFFFFABXiPinUf7U8SXlwDmMP5cf+6vH6nJ/GvWfEeo/2V4fvLsHDrHtj/wB88D9TXh1d+Bhq5nm5hU0UAooor0TzAoq7/Zsh0c6mJYjCsohZMncGIz6Y6e9Usj1pJp7A01uFFGR60+OGSYSGNCwjUu5H8I9TTAZRRmjIoAQ9D9KSP/Vr9KUkYPNIh/dr9KAHUUZoyPWgAooooAKKKKAOo8A6d9u8TRzMMx2qmU/73Rf1Ofwr16uN+HOnfZtCkvGXD3UmQf8AYXgfrursq8fEz5qj8j3MJT5KS89QooornOkKKKKACiiigDnfEP8AyH/Dn/X0/wD6LNdFXO+If+Q/4c/6+n/9Fmuiq5bIiO7/AK6IKKKKgsKKKKACiiigAooooAKKKKACvHfHn/I33n+7H/6AK9irx3x5/wAjfef7sf8A6AK68F/E+RxY/wDhL1Obooor1TxwooooAKKKKACiiigAooooAKKKKACiiigAooooA6DwR/yOOn/V/wD0W1ezV4z4I/5HHT/q/wD6LavZq8vG/wAReh6+A/hP1CiiiuM7gooooAKKKKACiiigAooooA8++Juo4Sz01G+8TPIPYcL/AF/KvOq2PFOo/wBqeJLy4BzGr+VH/urx+pyfxrHr2sPDkppHg4mpz1WwooorYwOj02SNfDQiNzbpMdRjlCPKoOwDBJBNbtrcQ3Oqqvn2cv8AxNSYFVkP7kqegHbOK8/qezvJ7C6S5tmCzJ91iobH4GsZ0r3N4VuWyaOstNTtwttBfXNs1yVuIzIpXYEK4RWI4+909KT7ZClmLdNSt1mbSvJZllwPMEmcE+uOlce7F3ZzjLHJwMD8qbR7FB7dm7olwLfSdV2zwRzssfkb2UMWDc4z7Vu3N7p0l1fC4ns5LMTW0iIjJzjHmEAck9c+tcLRTlSTd/66f5CjWcVa39a/5nXXN4iSGNp9LuNqTGNo5SG2MOm8/dPov1qvpc9qmkmKS7hQMhPmqwDqfKA2sh++M8AjkHJrmD0P0pI/9Wv0o9ktg9s73sdwzWUtrDbrc2Vyyz2rRqWHzKBhgFA+XtkdT1NSyvbpPD9oe2ktlmlxdNJG/lswPlhtnIUEH/IriLe4ltbiOeBzHLGdysOoNTXWoXF4AsrRhQc7Y4lQE+pCgZNR7F33KVdW2Leuz+dPArSWkkscexntiWDc8ZY/eOO9ZVFFbxVlYwk+Z3CnwwvcTxwRDMkjBFHqScCmV1HgHTvt3iaOVlzHaqZT/vdF/U5/CpqT5IORVKHPNR7nq1haR2Gn29pF9yGNUHvgVYoorwj6JKwUUUUAFFFFABRRRQBzviH/AJD/AIc/6+n/APRZroq53xD/AMh/w5/19P8A+izXRVctkRHd/wBdEFFFFQWFFFFABRRRQAUUUUAFFFFABXjvjz/kb7z/AHY//QBXsVeO+PP+RvvP92P/ANAFdeC/ifI4sf8Awl6nN1Jbwtc3EcKFQ7sFXccDJ96jq1pyltTtQMf61TycDANeo9EeQldjb2zl0+8ktZ9nmxna4VsgH0zUOx/L8zadhbbuxxnriu4udgvNSmWOzkd9UQo7iNyYjncRnt0pNtjujtp5bZbGLU58oXXAUgeX7lc+nasVW02N3Q13OGora1byxpNqJ1gXUVmkDeTt5j4wTt465x7Vo4sI4cgWzacdPyGwvmLcAf8AfW7d26Y9qv2ml7Gap62ucpRXbXEdoRfTRrYFJVtHgA8vJOV34XqO+RU5ayttXlhvoLCJE1IJb4jT/VHO7dj+Hp171HtvIv2HmcJHG8rhI1LuegUZNSWlrLe3KW8ABd84ycAADJP5CuysBFZnT1aSzS4/0uNyrx5wV+QEj+tYnhkyReICWeJcRyh2LKFzsIHJ4646U/aXTa6C9kk0n1/4BkXMAt5FVZ4Zgyhg8TEjntyAQfaoa6y0WyVLBphataNBIL/eE3rLz+IP3duKtWxhF7YW722n+Q9hvkLRx580K3BPY5K8Ue1t0GqN+pxNHU4HWu0gWGeCzWaCxBmsJvtBCRqfMGdn+6enTGaVobW2so232IkgltXWRGjHy/x4H3vrnqewo9t5B7Drc4x0eKRo5FKupwykcg02tPxCWOv3rF43DSsylGBBUk45HHSsytYu6TMZKzaOg8Ef8jjp/wBX/wDRbV7NXjPgj/kcdP8Aq/8A6LavZq8zG/xF6HrYD+E/UKKKK4zuCiiigAooooAKKKKACsvxHqP9leH7y7Bw6x7Y/wDfPA/U1qV598TdRxHZ6ajfeJnkHsOF/wDZvyrWjDnmomVefs6bkedUUUV7Z8+FFFFABRRRQAUUUUAFFFFACHofpSJ/q1+lKeh+lIn+rX6UAOooooAKKKKACvVPhzp32bQpL11w91Jkf7i8D9d1eXQwvcTxwRDMkjBFHqScCve7C0Sw0+3tIvuQxqg98CuLGztFR7nfgKd5OfYsUUUV5h6wUUUUAFFFFABRRRQBzviH/kP+HP8Ar6f/ANFmuirnfEP/ACH/AA5/19P/AOizXRVctkRHd/10QUUUVBYUUUUAFFFFABRRRQAUUUUAFeO+PP8Akb7z/dj/APQBXsVeO+PP+RvvP92P/wBAFdeC/ifI4sf/AAl6nN0UUV6p44YHpRiiigAooooAfDIYJ0lVVZkYMAwyMj1qS8upL68lupVQSSsXfYMAk9TioKKVtbhd2sGKKKKYBijA9KKKADA9KMUUUAFFFFAHQeCP+Rx0/wCr/wDotq9mrxnwR/yOOn/V/wD0W1ezV5eN/iL0PXwH8J+oUUUVxncFFFFABRRRQAUUUUAFczrPgmx1zUnvrm6u0kZQu1GXaAB2yprpqKqM5Rd4smcIzVpK5xX/AArPSf8An8vv++k/+Jo/4VnpP/P5ff8AfSf/ABNdrRWn1ir/ADGX1aj/ACnFf8Kz0n/n8vv++k/+Jo/4VnpP/P5ff99J/wDE12tFH1ir/MH1aj/KcV/wrPSf+fy+/wC+k/8AiaP+FZ6T/wA/l9/30n/xNdrRR9Yq/wAwfVqP8pxX/Cs9J/5/L7/vpP8A4mj/AIVnpP8Az+X3/fSf/E12tFH1ir/MH1aj/KcV/wAKz0n/AJ/b7/vpP/iay9C8C6fq9rPdtc3awGd0typXLRqcBj8vcg12Pii9kstAuPI/4+Z8W8A9Xc7R/Mn8KvabZR6bpttZRfcgjVAfXA61Xt6ije5H1ek5W5Tjrv4b6XBZzyreXpKRswBZMZAz/dqDR/h7pl9o1ldyXd4rzQJIwVkwCRnj5a7nUv8AkF3f/XF//QTVPw1/yK+lf9ekf/oIo9vU5b3D6vS57cvQ5/8A4VnpP/P5ff8AfSf/ABNH/Cs9J/5/L7/vpP8A4mu1oqfrFX+Yv6tR/lOK/wCFZ6T/AM/l9/30n/xNH/Cs9J/5/L7/AL6T/wCJrtaKPrFX+YPq1H+U5XTPAOmaZqMF6k91K8LblWRl259eFFdVRRWcpym7yZpCnGCtFWCiiipLCiiigAooooAKKKKAOd8Q/wDIf8Of9fT/APos10Vc74h/5D/hz/r6f/0Wa6KrlsiI7v8ArogoooqCwooooAKKKKACiiigAooooAK8d8ef8jfef7sf/oAr2KvHfHn/ACN95/ux/wDoArrwX8T5HFj/AOEvU5uiiivVPHCiiigAooooAKKKKACiiigAooooAKKKKACiiigDoPBH/I46f9X/APRbV7NXjPgj/kcdP+r/APotq9mry8b/ABF6Hr4D+E/UKKKK4zuCiiigAooooAKKKKACiiigAooooAKKKKACiiigAoopGYKpZiAoGST2oA56+/4mXjGxsxzDp8Zu5fTeflQfUcmuirnvCim6hvdZcHdqE5dM9REvyoPyBP410NXPR27EU9Vzdyrqf/IKvP8Arg//AKCaqeGf+RW0r/r0i/8AQRVrVP8AkE3n/XB//QTVXwz/AMitpX/XpF/6CKPsfMPt/I1aKKKgsKKKKACiiigAooooAKKKKACiiigAooooA53xD/yH/Dn/AF9P/wCizXRVzviH/kP+HP8Ar6f/ANFmuiq5bIiO7/rogoooqCwooooAKKKKACiiigAooooAKp3GkabdzGa50+1mlPBeSFWJ/EirlFNNrYTSe5nf2Bo3/QJsf/AdP8KP7A0b/oE2P/gOn+FaNFPml3FyR7Gd/YGjf9Amx/8AAdP8KP7A0b/oE2P/AIDp/hWjRRzS7hyR7Gd/YGjf9Amx/wDAdP8ACj+wNG/6BNj/AOA6f4Vo0Uc0u4ckexnf2Bo3/QJsf/AdP8KyfE+laTZeGdRuI9MskkWFgjCBQQTwCOOuTXT1z3jHMmk29oCM3V7BDj23gn+VVCT5lqRUjFRehZsvDmkxWFvHJpdkzrEqsxgUkkDk5xU/9gaN/wBAmx/8B0/wrRoqeeXcvkj2M7+wNG/6BNj/AOA6f4Uf2Bo3/QJsf/AdP8K0aKOaXcOSPYzv7A0b/oE2P/gOn+FH9gaN/wBAmx/8B0/wrRoo5pdw5I9jO/sDRv8AoE2P/gOn+FH9gaN/0CbH/wAB0/wrRoo5pdw5I9ilBpGmWsyzW+n2kMq9HjhVWH4gVdoopNt7jSS2CiiikMKKKKACiiigAooooAKKKKACikJCjJIH1pPMT++v50AOopvmJ/fX86PMT++v50AOopvmJ/fX86PMT++v50AMuJhbW0s5VmEaFyq9TgZwK4vUvG+m6toM1tYTtFe3O2BUlG3bvOCc9MAZ712xeNgQWUg8EZrwW50S5bxJcaVaRGSVZmRQP7oPBJ7DGOa6cPTjK/N0OTFVJwS5ep7tZW8VpYwW8GPKijVEx6AYFT1zfhHw+fDtgyT3zTTS4LIH/dpjso/Hr3rovMT++v51hJWejudMG3FXVitqv/IIvf8Arg//AKCaq+Gf+RW0r/r0i/8AQRVjVZE/se9+df8Aj3k7/wCyareGnQeGNKBZf+PSLv8A7Ip/YJ+38jWopvmJ/fX86PMT++v51BoOopvmJ/fX86PMT++v50AOopodScBgT7GnUAFFFFABRRRQAUUUUAFFFVJdSs4dRhsJJ0W6mQukZYZIBA/rQBS1fTri81bRriFVMdrOzyknGAVI49ea2KrNqNkiO7Xluqo21mMqgKfQ88GornWdOtTGJbyAGSUQqN4+/wBcH045pt3ElYvUUUUhhRRRQAUUUUAFFFFABRRRQAUUUUAFFFFABRRRQAUUUUAFc9rv7/xD4etM8efJORj+4hx+pq14lv77S9EmvrCKKWSEhnWQEjZ36EV5ynxDlk1221K6sEbyIXiEcblRliMnnPpW9KlKXvI561aEPdl5HrtFZmg6v/bmlpfC1lt1ckKsn8QHce3+FadYtNOzN001dBRRRSGFFFFABRRRQAUUUUAFFFFABRRRQAUUUUAFFFFABRRSMwVSzEAAZJPagDzP4l6j52o2unKcrAnmOP8Aabp+QH61wu1fQflV/WL86prF3ek8TSEr7L0X9AKo17dGHJTSPAr1Oeo5CbV9B+VG1fQflS0VqYibV9B+VG1fQflS0UAJtX0H5UbV/uj8qWigBNq+g/KjavoPypaKAGso2ngdPSkRRsXgdKc33T9KRPuL9KQC7V9B+VG1fQflS0UwE2r6D8qNq+g/KlooA7P4bad5+tzXxX5baPCn/abj+QP516nXM+A9O+w+GIZGGJLomZvoeF/QD866avFxE+eo2e7hoclJIKKKKxOgKKKKACiiigArB1jTr251i3ntl+RrOe2aUMAYmfaVbHf7p6VvUUAcbbaJcSafMl5og8+S3Szk3XfmK6g/fAJACryR/FzjinQ6XqsNlZ2z2fnPYaiJROZEDXUeGG88/e5Gc9cceldHe6nDY3ljbSK5e8kMaFcYBAzzV2iwrhRRRQMKKKKACiiigAooooAKKKKACorm4itLWW5mbbFEhdz6ADJqWuS+Ieo/ZPDv2VTiS7kCf8BHLf0H41cI88lEipPkg5dhv/Cx9E/55Xn/AH7X/wCKo/4WPon/ADyvP+/a/wDxVeUUV6X1OmeT9eq+R6v/AMLH0T/nlef9+1/+Ko/4WPon/PK8/wC/a/8AxVeUUUfU6YfXqvker/8ACx9E/wCeV5/37X/4qj/hY+if88rz/v2v/wAVXlFFH1OmH16r5HqsnxE0KWNo5ILxkcFWUxLgg/8AAq850+PRk155L37S+nI5aNFQbpBngNzx71QorSGHjC6jfUzniZ1GnJLQ9VT4i6FGiokF2qqMBREoAHp96nf8LH0T/nlef9+1/wDiq8oorP6nTNPr1XyPV/8AhY+if88rz/v2v/xVH/Cx9E/55Xn/AH7X/wCKryiij6nTD69V8j1f/hY+if8APK8/79r/APFUf8LH0T/nlef9+1/+Kryiij6nTD69V8j1f/hY+if88rz/AL9r/wDFUf8ACx9E/wCeV5/37X/4qvKKKPqdMPr1XyPV/wDhY+if88rz/v2v/wAVW3omvWuv28s9okypG+wmVQMnGeOT614b0r2vwlp39meGrOFlxI6+bJ/vNz+gwPwrnxNCnSirbnVhcRUqyalsjboooriO8KKKKACiiigAooooAK5/xpqP9neGLplbEk48hMerdf0zXQV5l8S9R83UbXTlPywJ5rj/AGm4H5AfrW1CHPUSMMTU5KTZw1a+h2dreR6ibmJnNvatOm1yvIxwfbmsitPSdSg0+O9WWGWQ3Nu0HyMBtBxzyOelexO/LoeJTtzag+gagsBnMcWzyhNgTKTsJxuxnpUjeGdURmVoosqyowEyEoW+7kA8A+tWhrlq6+UlpcFmsBYj94vr97p+lXNa1ZNM1m8NtEXknEO9zIChVdp4x6kY6+tZc9S9rGvJSte/9a+RlWnhy8uLuGGQxxI9ybVnLg7XHJGB7VQSylmvWtYAJHUnkMMYHUk9AMVu/wDCT2yTxyw2MoK35vTvmBySMFfu/lWXY6nDY6rLcLbNJbSo8bwu/wAxRhg/Njr+FUnU1bRMlT0SY1tFvVOWWNY9iyeaZV2bW4X5s45qVfDmps7q0McZSUQt5kyr8xGQOT37etOXVLJbO6sFspFs5tjA+aDIHUnDE4wepGMVbk8SQzoRNbS5+0QyrtkHCxrtC8jk46mk3U6IFGl1f9fcZzaHfIIdyRjzpjAo8wZDjqD6fjQuiX7QvKsaMqJ5hxIM7M43Yz933q0/iA51NY4DsvJDLHvbJhc5BI/AkflSSa3BPp8EMttP58UIg3pORGyjgEp/ex74p3qdgtT7g/hm8htr2S6kghNtEXKearMTkDGAeOveqz6XcOsRW1jt0W1jld2mG0hujEk8E+lW7nXbea71WYWsojv4BGV8wZRhgg5xyPloOvQTWH2SS1kMMlpDA+HG4NH91hx7ng0k6nVDapdGVx4e1LdIrRRp5bqjF5kUAsMryT0PY1n3EEtrcyW8ybJY2KOp7EVtzeIYbmCSKa2lALwFNrj5ViGADkck5OTWZqt4moarc3iRtGs8hfYxyRn3qoObfvIiagl7rKdWdPs31HUbayT708ipn0BPJ/AZNVq7P4cad9o1ua9YfJax4X/fbj+Qb86K0+SDkOjD2lRRPUIo0hiSKMbURQqj0A6U+iivDPoAooooAKKKKACiiigAooooA53xD/yH/Dn/AF9P/wCizXRVzviH/kP+HP8Ar6f/ANFmuiq5bIiO7/rogoooqCwooooAKKKKACiiigAooooAK8l+IWo/bPEf2ZTmO0QJ/wACPJ/oPwr1S6uY7O0muZTiOJC7H2AzXglzcSXd3NcynMkzmRvqTmu3BQvNy7HBj6loKPcipcEgkA4HU4pK10S+0bVre2jnLFzHIEjJKuHAOCO/BxXpN2PKSuZFFdlfeHtLk1qNIGmWKfUXtSsbjC4UH5eOxJGPaq6aRp1xHpduyTRtLHcO8qMCSUJ65H+zWarRtc1dCV7f1/WpytFdIuiadPpLX8ElyFNpJMqOy5DIwUg4HIOakudJsLLTNRdYpZHEFtIjO4ynmckdKPaxF7GW5y4GTgcmlIIOCCPrW9YD7N4Svr62OLv7QkTyL96OMjPB7ZPGajtkuNWsJZb15Ht9PheRSPvvkqNu454HHrinz7i9nt3ZiUV0kmh6dDp8l+8t00PkQzpGpUMA7FSpOPUdadJ4dtWn1C0tnme5tJk4ZgAYWxlunUZGfzo9rEfsZHM0V0I0fTPJhme4uEiuvM+zkAuflOACAvJJHPIxmrdvpWkW9/5DR3M8n2Frn94yhBmLd2HUGk6qBUZM5OnbHKFwjbAcFscA/Wt/+wbQJFA1xIt5PAk0I2llO49D8vQA/ez1HSpr2CGy8O6rZQmY/Z7+ONjIwwxAYZAA46e/an7RdA9k+pzFFFFaGRpaBpx1XXrOzxlHkBf/AHRy36CvdOgwK83+Genb7m81J14jUQxn3PLfpt/OvSK8rGT5qlux7OBp8tO/cKKKK5DsCiiigAooooAKKKKAEZgqlmIAAySe1eEazqB1TWbu9JyJZCV/3ei/oBXrHjTUf7N8MXTK2JZh5CY9W6/pk14zXoYGG8zzMwqbQ+YUUUV6B5oUUUUASQW81zKIoInlkIztRSTVg6TqKyiM2FyHKbwvlHO31+lX/CQJ8TWmN38edo5+6auWutWdvZpZPcTkRwXCCbyzndJgAAZyAMZ/GspTknZI1hCLjeT/AK0MM6ZfqJCbK4HlEh8xn5cdc/So/sV19m+0/ZpfI4/ebDt56c1uWmuWsR0u5kaYXFgjo0YXImByQc54znBzRNrViZ4L+JrlZgkKS2gGIzsI755XjpjqaOed9h8kLXuYzabfKyK1nOGkztBQ846/lR/Zl/mQfY58x/fGw/Lxnn8Oa3pNbs1uG+z31yYXaSTZLapsUsMbWUfez0J46UHWdK/eriU27ZIhKHKtsC7o3zleRjByMYpc8+wezh3OWb7p+lCfcX6UN9w/ShPuL9K2MRaKKKACvX/AenfYfDEMjLiS6YzN9Dwv6AfnXlOn2b6jqNtZx/enkVM+gJ5P4DJr3qKJIYUijG1EUKo9AOlcGOnooHo5fT1cx9FFFeceoFFFFABRRRQAUUUUAFFFFAHO+If+Q/4c/wCvp/8A0Wa6Kud8Q/8AIf8ADn/X0/8A6LNdFVy2REd3/XRBRRRUFhRRRQAUUUUAFFFFABRRRQByXxD1H7J4d+zKcSXbhP8AgI5b+g/GvJq6z4haj9s8RfZlOY7RAn/Ajyf6D8K5OvXwsOWmvM8TGVOeq/LQKs29/dWq4gmMfOQwUbhxjg4yKrUV0NJ7nKm1sXbXVtQsY9ltdyRrv8zA/vev1q9pOvy2t5G95cXEkEQkKIgBO5gRnkj1zWJRScIvdFRnKLVmXV1a/juBNHdOGVDGpAAGw9tvTFOfWtSk8zfeyt5kYjfJ6qOgqXT9JivLCS8lvBAkc6QkeUXOWzg9farj+FZPNaGG8SSWO6+zSgoVCnBbIPcYBqHKmnqWo1Grr8zGtb25sXZraZoiw2tjow9COhqRdTvVuPPW4cSbSmRgDaeox0x7VpReHUuCv2e/jmJjL+VGFaXIIGNobng569KifQttjNdi5Lxxu65WIkAqcDfzlCeoyKfPBsOSokVBq9+FlX7SSsu0OpVSCF+6MEdB2FNk1O9lupLl7lzNKhjkcYBZSMEHHtWs3hWQvarHdoRPOYNzxlOdu7IGckEdM4NRHw4THFKt2PKeF5m3x7HRVbacgnHXgc0uemNwqmfBqt/bWb2kN3Klu5JaMHjnr9KcdY1A3Ud19qYTxp5auAAQuMY6dMUzULNLG5EUdzFcIUDh4yO/Y4JwR9aqVaUXrYzcpLS5dfV9Rks/sj3krW4Odhbjrn69aW41nUruF4Z7ySSN8bwcfNjpn1qjRRyx7C55dwo6UVpaBpx1XXbOzxlHkBf/AHRy36CnKSim2EYuUlFdT1nwjp39meGrOFlxI6+bJ/vNz+gwPwrboxgYFFeDJuTbZ9FGKikl0CiiikUFFFFABRRRQAUUUjMFUsxAAGST2oA80+Jeo+bqNrpyn5YE81x/tNwPyA/WuFq9rOoHVNZu70nImkJX/d6L+gFUa9ujDkppHz9epz1HIKKKK1MgooooAfHLJC26KR426ZRiD+lNJLMWYkk8knvSUUAFFFFABRRRQAjfdP0oT7i/Shvun6UL9xfpQAtFFFAHZ/DjTvtOty3rL8lrHhT/ALbcfyB/OvU65jwHp32HwxDIy4kumMzfQ8L+gH5109eNiJ89Rs93C0+SkkFFFFYHQFFFFABRRRQAUUUUAFFFFAHO+If+Q/4c/wCvp/8A0Wa6Kud8Q/8AIf8ADn/X0/8A6LNdFVy2REd3/XRBRRRUFhRRRQAUUUUAFFFFABUN1cR2dpNcynEcSF2PsBmpq5L4h6j9k8O/ZlOJLtwn/ARy39B+NXCPPJRIqT5IOT6Hld1cSXl3NcynMkzmRvqTmoqKK9xKysfOt3d2FFFFMAooooAvWuqS2tk9osULxPKsrbwc7l6dCKtnxNf+ZLKiwRyyXAuWdUOd4GM8npjPHvWNRUuEXuilUktmaj67PJIWNpZKp5CJDtVWzncMHIPvmlPiG9Lyy4hE8ocPMEwxDHJB5wfyrKoo5I9h+0l3OjtPErz36G+W2iiMxuCy2+f3u3AJ5zgnGcc+lJda6lvPHNZraPcYZJWSNzHJGR91lc5P6VztFT7KN7j9tK1ie7unvJ/NdI0wAqpGu1VHoBUFFFaJWM27hRRRQAV33wz07fc3mpOvEaiGM+55b9Nv51wPSva/COnf2Z4Zs4WXEjr5sn+83P6DA/CuTGT5adu52YGnzVObsbdFFFeUeyFFFFABRRRQAUUUUAFIyq6FGAZWGCD0IpaKAMv/AIRvQ/8AoEWP/fhf8KP+Eb0P/oEWP/fhf8K1KKrnl3J5I9jL/wCEb0P/AKBFj/34X/Cj/hG9D/6BFj/34X/CtSijnl3Dkj2Mv/hG9D/6BFj/AN+F/wAKP+Eb0P8A6BFj/wB+F/wrUoo55dw5I9jL/wCEb0P/AKBFj/34X/CsSx0PSV8XataSabZtEYYZokaJSFGCrYGOORXX1z9x+48e2b5AF1YyRfUowb+tVGUtVcicIqzt1Ln/AAjeh/8AQIsf+/C/4Uf8I3of/QIsf+/C/wCFalFTzy7l8kexl/8ACN6H/wBAix/78L/hR/wjeh/9Aix/78L/AIVqUUc8u4ckexjXPhbRZ7SaFNNs4mkRlEiwLlCRjI47VgxeBbqKJIxd6YQihQW0tGJx6knk129FNVJrqS6UH0OK/wCEIuv+fvS//BTHR/whF1/z96Z/4KYq7Win7WfcXsIdjnU0jxFGioniKJVUYCrYIAB6dad/ZXiP/oZU/wDAFP8AGugopc7/AKSK9mvP72c//ZXiL/oZV/8AABP8aX+yfEP/AEM3/khH/jW/RRzv+kg9mvP72YH9k+IP+hmP/gBH/jS/2T4g/wChmP8A4Ax1vUUc78vuQezXn97MH+ydf/6GZv8AwBjpP7I1/wD6Gd//AACjrfoo535fcg9mvP72c/8A2Nr3/Qzyf+AUdH9i67/0NEv/AIBx10FFHO/6SD2a8/vZz39ia7/0NE3/AICR0f2Hrn/Q0T/+AkddDRRzv+kg9mvP72cHrOk6rFrGiJLr80ryXDiNzboPLOw8gDr6c1tf2FrX/Q03P/gNHR4h/wCQ/wCHP+vp/wD0Wa6KqlN2X+SIjBXf+b7HO/2DrX/Q03X/AIDx/wCFH9gaz/0NN3/4Dx/4V0VFRzv+ki/Zr+mznf7A1n/oabv/AMB4/wDCj+wda/6Gm6/8B466Kijnf9JB7Nf02c7/AGFrf/Q03P8A4DR0f2Hrf/Q0XH/gLHXRUU+d/wBJB7Nef3s57+xNc/6Gif8A8BI6P7F13/oaJv8AwEjroaKOd/0kHs15/ezn/wCxte/6GiX/AMA4643xVoHia+1NYy1xqEUKYSbykQc8nAH4flXqVFXCs4O9kZ1KEZx5bv7zxD/hEPEP/QOn/Jf8aP8AhEPEP/QOn/Jf8a9vorb67Psjn/s+n3Z4h/wiHiL/AKB0/wCS/wCNH/CIeIf+gdP+Q/xr2+ij67Psg/s+n3Z4h/wiHiL/AKB0/wCQ/wAaP+EQ8Rf9A6f8h/jXt9FH12fZB9Qp92eIf8Ih4i/6B0/5D/Gj/hEPEX/QOn/If417fRR9dn2Qf2fT7s8Q/wCEQ8Rf9A6f8h/jUMfhvW5rme2jspWmg2+Ym0ZXcMjv3r3Wue/49PHvTCX1j6dXjb/BqqOMm76EywMFbVnlc3h3Wrae3imsZVedykakD5jjOBzVn/hEtf8A+gXP+n+NeleIv+Q74c/6+2/9ANdFQ8ZNJaIFgYNtXZ4n/wAIlr//AEC5/wBP8aP+ES1//oFz/p/jXtlFL69Psiv7Pp92eJ/8Ilr/AP0C5/0/xo/4RLX/APoFz/p/jXtlFH16fZB/Z9Puzx7S/Burzapapd2EsVsZAZXbGAo5Pf8AD8a9hxgYFFFc9WtKq7s6aNCNFNRCiiisjYKKKKACiiigAooooAKKKKACiiigAooooAKKKKACuf8AEH7jWvD93nG27aE8f89EI/oK6AnAJxn2ry7xL48juwlrHp08M1tdJKDKwBDIehA/KtaUJSloY16kYR95nqNFcZ4T8Xal4l1OVGs4IbSFNzsuS2T90Z6evbtXZ1E4ODsy4TjNc0dgoooqSwooooAKKKKACiiigAooooAKKKKACiiigAooooAKKKKAOd8Q/wDIf8Of9fT/APos10Vc74h/5D/hz/r6f/0Wa6KrlsiI7v8ArogoooqCwooooAKKKKACiiigAooooAKKKKACiiigAooooAKKKKACuT8S6rp9nq2i3pvYN9vcskiq4LCN1IJIHOBgV1ToskbI4DKwIIPcGvHfGXg2TQ5jd2as+nufqYj6H29D/k70IxlKzZz4mcowvFXOrvPEuma34m0KDT5mlaG5ZmbYVGNhHeu5ryfwvpP2IeH76RcS3d8xBP8AcVGA/XJ/KvWKVaMYtKI8PKUouUt3/kFFFFYm4UUUUAFFFFABRRRQAUUUUAFFFFABRRRQBm61rlnoNtHPeeZskfYvlrk5wT/SsT/hYuh+l1/36H+NVfib/wAgSz/6+f8A2Rq8wrvw+GhUhzM87E4qpTqcsT1n/hYuh+l1/wB+h/jR/wALF0P0uv8Av0P8a8morb6lT8zn+v1fI9Z/4WLofpdf9+h/jR/wsXQ/S6/79D/GvJqKPqVPzD6/V8j1n/hYuh+l1/36H+NH/CxdD9Lr/v0P8a8moo+pU/MPr9XyPWf+Fi6H6XX/AH6H+Ncd4y1HQddAvLETx3y4DbosLIPfnqPWuXoqoYWEHdXJni6k48srHdeEPE2h+H9EW3lFwbmRi8zLEMZ7Dr2H9a3/APhYuh+l1/36H+NeTUUpYSnJ3dxxxtSKUVY9Z/4WLofpdf8Afof40f8ACxdD9Lr/AL9D/GvJqKX1Kn5j+v1fI9Z/4WLofpdf9+h/jR/wsXQ/S6/79D/GvJqKPqVPzD6/V8j1n/hYuh+l1/36H+NH/CxdD9Lr/v0P8a8moo+pU/MPr9XyPZdM8aaVq2oRWVsLgTSZ2748DgE+voK6GvG/Av8AyONj/wBtP/RbV7JXFiaUac7RPQwtWVWHNLuFFFFc50hRRRQAUUUUAFFFFABRRRQBzviH/kP+HP8Ar6f/ANFmuirnfEP/ACH/AA5/19P/AOizXRVctkRHd/10QUUUVBYUUUUAFFFFABRRRQAUUUUAFFFFABRRRQAUUUUAFFYep+KdP08tGjfaZx/BEeAfdug/nXH6l4h1HU8rJL5UB/5ZRHAP1PU/y9qVzjr46lS0vd+R2Op+KdP08tGjfaZxxsiPAPu3QfzrjNV1++1dGimcR27cGCPgEe56n+XtWYAAMDpRRc8evjqtXS9l5Fi2vJ7WaydXLx2cnmRROcqOMYHpwa7zTPFdhf7Y5W+zTnjbIflJ9m6fyrzuii7FQxtWjpuvM9horzHTdf1DS8LFL5kI/wCWUnK/h3Fdjpniuwv9scrfZpz/AAyH5SfZun54ouexQx1Krpez8zdooopnaFFFFABRRRQAUUUUAFFFFABRRRQBxHxN/wCQJZ/9fP8A7I1eYV6f8Tf+QJZ/9fP/ALI1eYV62D/hHi47+MwrVOiPHdRWlxd28F1IB+6fd8uegYgYB5rMifypkkxnYwbB74Nbmti01PVZdShv4VhuCJGRyfMjOBlduOfbFbybvY54pWbMN1KOynqpINNrq4dRsYorZluI/sQsWintG+80uDzjuScHd2xVi71ON7a7RdRgI+wQCILIP9cpGSPfg81HtHfYv2Ste5xmD6UV1j63YSX9ndSSMRdtHJfpgkKUGMY7gn5sfSp4tSWKd0fU7B2S1nWKVN3Jb7oLPkk5zx2o9pLsCpR/mORktpooIpnjZY5c7GP8WODUVbusai2o6LprSX3m3EfmCaMsd24tkHHTGO9XkvrMaVbrFeWkcLW6wzwPGzSK4PLBfunnndT52lqhezi3ZM5Srtpp5u7K9uBKENqgcoVOWBYD8OtddLf6U7xefqFu7JPPslyXK7kwj9MAA84HArPhv2itr9X1a2kuxaJDFKpxkh84DEZY47n6VPtZNaIv2UU9Xf8A4Y5eGMSzxxFggdgu4jOMmptQs20/UbmzZw5gkKFgMA471p61LBceJ1nhnheNzEzSK3y5AG4n8Qa25tTslubqe1vrKOQXckshl3sJo2AxgLw2BkbTTdRqzsSqcXdX2ZyS6ddsEIgfDxNMvH8Azlvpwaq12MOqQOlpjVEiB02W3Ks7DZJlsZ9O2DTTqFslpCLW+s1haKON4XD+YsikZbn5Rk5O7rzR7SXVDdKPRnIUVr+Jb5r3WbgrcrPbLIxgKEbQpOeKyK1i7q7MZJJtI6LwL/yONj/20/8ARbV7JXjPgh1TxfYs7BVHmck4H3Gr2D7Vb/8APxF/32K8zG/xF6HrYD+E/UmoqH7Vb/8APxF/32KPtVv/AM/EX/fYrjO4moqH7Vb/APPxF/32KPtVv/z8Rf8AfYoAmoqH7Vb/APPxF/32KPtVv/z8Rf8AfYoAmoqH7Vb/APPxF/32KPtVv/z8Rf8AfYoAmoqH7Vb/APPxF/32KPtVv/z8Rf8AfYoAw/EP/If8Of8AX0//AKLNdFXNa7NHLr/h3y5EfF0+drA/8szXS1ctkRHd/wBdEFFFFQWFFFFABRRRQAUUUUAFFFFABRRRQAUVh6n4q0/Ty0cbfaZxxsiPAPu3QfzrjtS8Q6jqeVkl8qE/8souAfqep/l7UrnHXx1Klpe78jsdT8U6fp5aNG+0zj+CI8D6t0H8647UvEOo6plZJfKhP/LKLgH6nqf5e1ZYAAwOBRQePXx1Wrpey8gAAGB0ooopHEFFFFABRRRQAUUUUAaem6/qGl4WKXzIR/yyk5X8O4rsdM8V2F/tjlb7NOf4ZD8pPs3T88V53R1FM7KGOq0tL3XZnsNFeY6br+oaXhYpfMhH/LKTlfw7iux0zxXYX+2OVvs05/hkPyk+zdP5UXPYoY6lV0vZ+Zu0UUUztCiiigAooooAKKKKAOI+Jv8AyBLP/r5/9kavMK9P+Jv/ACBLP/r5/wDZGrzCvWwf8I8XHfxmFLsYIH2nYTgNjgn0pK6/S0t7vRdKjuTb+UktwCH2geZgeWG74J/PvW858quc9OHO7HIUVsavHEum2DSQxw6gfME6RqFyoPykgcA9frittrOzj+zrDZWk1pKYPJnaVC2eNw2gbifvZBOBik6iSuUqTbaucZRXcHT7Kaci4tbSBI9QliiYKEUpsOzcR1XdjmqlvA0VtfPdabpxu7e1BChFbLBxyQOM4zwOwqfbLsV7B9zkqK6Zp7OfRl1byLSOeBXt3t1hUK8jco+Mdhn/AL5960LqO1tpbjzrG0ggWC3lt5VjUMZTtJHuPvZHTin7XpYSo31ucfHazSPKm3aYkLuH4wB/kU8WMx00342eQJREfm53EZ6fhXR6wsUetXP2qRFivb0KzRleIAck8epI/KtBbWAQyWt8lpDa/wBpAxhGVVZNjBSSOozjk+tS6uiZSo3bRwdFdg1jHIk0JsrKHVYoD5KGWNhL8wySAAucZx61FMVttHurxdN07zxdqu0RiRUUp82M+jfgDVe1v0JdG3U5SlVGdwiKWZjgADJJrrX/ALPaexuooLVl1OSJfs/lLiEKcSAccZP6ZrQtBa2urRie2tLWdNQeO32oqlotrdfXnbgn1qXWsthqhd7nA0VLcLIlzIsoUSBiGC4wD+HFRVuYG14SsrbUfE9nbXcKzQPv3I3Q4RiP1Feof8Ib4d/6BNv+R/xrzfwL/wAjjY/9tP8A0W1eyV5mMk1U0fQ9bAxi6buuph/8Ib4d/wCgTb/kf8aP+EN8O/8AQJt/yP8AjW5RXJzy7nZ7OHYw/wDhDfDv/QJt/wAj/jR/whvh3/oE2/5H/Gtyijnl3D2cOxh/8Ib4d/6BNv8Akf8AGj/hDfDv/QJt/wAj/jW5RRzy7h7OHYw/+EN8O/8AQJt/yP8AjR/whvh3/oE2/wCR/wAa3KKOeXcPZw7GH/whvh3/AKBNv+R/xo/4Q3w7/wBAm3/I/wCNblFHPLuHs4djJtPDOi2F0lza6bBFMn3XA5Fa1FFJtvcpJLYRlDqVYZBGCK4dJZdDjuoryR5dEvJZo43diTaSB2AUt12NgYPY/Wu5PIqimkWi2E9jIrz285YyJO5fO45PX3JpDMdNaaxsJ4rO1WZNMtI5rgNIQxDKWwvBycAnnua07zWVtbO2uYrG8u0nAZRbRbioIyCRnilm0HT5pC7RMpaEQSBXIEkY6KwHUdfzNaIAUAAAAcADtTQn5HP/APCVN/0ANa/8Bf8A69H/AAlTf9ADWv8AwF/+vXQ0U7x7E8su5z3/AAlTf9ADWv8AwF/+vR/wlTf9ADWv/AX/AOvXQ0UXj2Dll3Oe/wCEqb/oAa1/4C//AF6P+Eqb/oAa1/4C/wD166Gii8ewcsu5zcvi1o4mf+wtWXA6ywbVH1OTiuW1HxDqGqgrJN5UB/5ZRHAP1PU/y9q9NrE1Pwtp+olpET7NOf8AlpEMA/UdD/OplrscmLoV6kbQl8jzkAAYHAorV1Lw7qOmZd4vOgH/AC1iGQPqOo/l71lAgjIORUnz9SnOm+WasaGnaW99uLeYilGMbKoIZh/D168invpkMVuZ5ZpFRCiOAgJDsMkdegFU4b24t0VIpNoWQSjA/iHSnpqFwnnAsrrM2+RXUMC2c5we9BopUuVJrUvy6HHbqwkumMnneTGFjyGJAK854ByKdPBHbaJe26yM7RXSKxKgDODnHtWfJqV1NCY3cEGTzd20bt3rmnXGq3dzFJHK0ZWVgzkRqCxHcnHWmX7Skr8qt/XqOSxiW2hluLhozOrtHhNw44wfqambR1Vp4TOftFvGssi7PlIOM4OeoyPrVWPUrqK1Fsrr5YJK5QEpnrtPUfhQ+p3TrhnUkqEZto3Mo6AnuKCFKlbb+vv7l+bRraA3Ia7lP2eVI3xEOd3THNK2h28UyxzXjqWuWt1KxZGRjBPPTkVTk1e6lMxfyj5zK8n7sfMV6Val1lnsY23obzz2lY+SOMgAEHpnig1UqDvp/V/XsTSWDzadaWzuFML3G9vZcZqBdOsxa3TrMZyIkZCuPlZmAIPbP+NVI9WvIlhCOo8pmZTtGct97Prn3oOq3ZaQ7owJECFRGoUAHIwMYHPNBLqUnrb+rWLMlpb6ZKZGlSeWCTY8DY546jGeh9ag1KVHW1jwpnjjxM4AG4k5A/AcZqO51O6vECzurYwSQgBbHTcR1/GoJ5nuJmlfbuY5O1Qo/IUETnGzjDb+v+AR0UdBk1p6boGoaphoovLhP/LWXhfw7mkZwpzqPlgrsNN8QX+l4WKXfAP+WUvK/h3Fd9o+qf2tZfaPs0sHOMOOD7qe4qlpnhTT7ArJKv2mcc7pBwD7L0/nW7TPoMHQrUl+8lp2/wCCFFFFM7gooooAKKKKAOI+Jv8AyBLP/r5/9kavMK9P+Jv/ACBLP/r5/wDZGrzCvWwf8I8XHfxmFGKKK6jkCjA9KKKAEwPSjA9KWigC3cX73EEEBhgjii/giTaHOMbm9TgUmo376ldfaJYokfYqYjBAIUYHUnsBVWikopDcmwxRgelFFMQYHpSoQjq21Tgg4I4NJRQBffVpn1GG88mBTAQYoUQrGuDkYAPrz1qrdXBu7ua4dEVpWLsEBxk9etRUUlFLYbk3uFFFFMR0XgX/AJHGx/7af+i2r2SvG/Av/I42P/bT/wBFtXsleXjf4i9D18B/CfqFFFFcZ3BRRRQAUUUUAFFFFABRRRQAUUUUAFFFFABRRRQAUUUUAFFFFABRRRQAUUUUAFYmp+F9P1EtIqfZ5z/y0iGAT7jof51t0UETpxqLlmro8z1Lw7qOmZd4vOhH/LWIZA+o6j+XvWUCCMg5Few1ian4X0/US0ip9nnP/LSIYyfcdD/OlY8qvlfWk/kzzmitXUvDuo6Zl3j86Af8tYhkD6jqP5e9ZQIIyDkUjyalOdN2mrBRRRQQFFFFABRR0rU03w/qGqYaKLy4T/y1l4H4DqaC4U51HywV2ZfQZNamm+H9Q1TDRReXCf8AlrLwPwHU12OmeFdPsNski/aZx/HIOB9F6D9a3Kdj1aGV9ar+SMLTPCun2G2SVftM4/jkHAPsvT+dbtFFM9anThTXLBWQUUUUFhRRRQAUUUUAFFFFAFa80+z1GNY7y2iuEU7gsihgD681T/4RjQv+gRZ/9+VrVoqlJrZkuEXq0ZX/AAjGhf8AQIs/+/K0f8IxoX/QIs/+/K1q0Uc8u4vZw7GV/wAIxoX/AECLP/vytH/CMaF/0CLP/vytatFHPLuHs4djK/4RjQv+gRZ/9+Vo/wCEY0L/AKBFn/35WtWijnl3D2cOxlf8IxoX/QIs/wDvytcN8QH0XSoE02x060S8lAaR0iXMa9voT/L616dXF+I/BGlzw6lq0kt2bny5Jv8AWDbkAkDp04rWjO07zbMa9NuDUEjF+H76Lqlu2m32nWj3kQLRyPECZF/qR/L6V3P/AAjGhf8AQIs/+/K1z3hvwRpcUGmatHLdrc+XHNxINu4gEjp0rtqK07zvBsKFNqCU0jK/4RjQv+gRZ/8AflaP+EY0L/oEWf8A35WtWisueXc29nDsZX/CMaF/0CLP/vytH/CMaF/0CLP/AL8rWrRRzy7h7OHYyv8AhGNC/wCgRZ/9+Vo/4RjQv+gRZ/8Afla1aKOeXcPZw7GfbaFpVlcLPbadbQzLna6RgEZ461oUUUm29ykktgooopDCiiigAooooAKKKKACiiigAooooAKjncx28ki4yqEjPsKkqG7/AOPOf/rm38qAKfh+/m1TQLK+nCCWaPcwQYGfatKsPwb/AMifpn/XEfzNblVJWk0TB3imwoooqSgooooAKKKKACiiigAooooAKKKKACsTU/C+n6iWkVPs85/5aRDGT7jof51t0UETpxqLlmro801Lw7qOmZd4/OhH/LWIZA+o6j+XvWSCCMg5FewkgDJOAK5/UdC0bVEknjlihkHLTQsMf8CHT+tKx5VfK+tJ/Jnn3StTTfD+oapho4vKhP8Ay1l4H4Dqa05tEtNN1TQDFMbnz7pg7kgqwCE8Dp1+td1T5bJMnD5bd3qv5GHpnhXT7DbJIv2mcfxyDgfReg/Wtyiig9enThTXLBWQUUUUFhRRRQAUUUUAFFFFABRRRQAUUUUAFFFFABRRRQAUUUUAFFFFABVLWIpJ9Ev4YlLyPbyKqjqSVOBV2imnYTV1Y5PS/ETWWk2drJoesmSGFI2K2vGQADjmrf8Awlg/6Aetf+An/wBeuhoqnKL6EqMkrXOe/wCEsH/QD1r/AMBP/r0f8JYP+gHrX/gJ/wDXroaKV49g5Zdznv8AhLB/0A9a/wDAT/69H/CWD/oB61/4Cf8A166Gii8ewcsu5z3/AAlg/wCgHrX/AICf/Xo/4Swf9APWv/AT/wCvXQ0UXj2Dll3Oe/4Swf8AQD1r/wABP/r0f8JYP+gHrX/gJ/8AXroaKLx7Byy7nPf8JYP+gHrX/gJ/9ej/AISwf9APWv8AwE/+vXQ0UXj2Dll3Oe/4Swf9APWv/AT/AOvR/wAJYP8AoB61/wCAn/166Gii8ewcsu5z3/CWD/oB61/4Cf8A16P+EsH/AEA9a/8AAT/69dDRRePYOWXc57/hLB/0A9a/8BP/AK9H/CWD/oB61/4Cf/XroaKLx7Byy7nPf8JYP+gHrX/gJ/8AXo/4Swf9APWv/AT/AOvXQ0UXj2Dll3Oe/wCEsH/QD1r/AMBP/r0f8JYP+gHrX/gJ/wDXroaKLx7Byy7nPf8ACWD/AKAetf8AgJ/9eo5/FPm28kY0PWgWQgZtPUfWuloovHsHLLuY/hW3mtPC+nQXEbRypEAyMMEfWtiiik3d3KirKwUUUUhhRRRQAUUUUAFFFFABRRRQAUUUUAFFFFABXHyacuneIn0e2SNdO1pXnlQL/q2XAkC+zgj6HJrsKqy6bZT30V7LbRvdRDEcpHzKPY9qAOIvdSluNY0f7PDBFbWt/PAkXyqEKKwGcHI6ZxgcEV1OhalcXxuIrv5LmHZvhaLYyZB75IZTg4INZXiDTbFfE2h3K2kAnuLlkmkCDdIPLPBPeultbG1sUK2sCRA4ztGM46VT2RMd2WKKKKkoKKKKACiiigAooooAKKKKACiiigAooooAKKKKACiiigAooooAKKKKACiiigAooooAKKKKACiiigAooooAKKKKACiiigAooooAKKKKACiiigAooooAKKKKACiiigAooooAKKKKACiiigAooooAKKKKACiiigAooooAKKKKACiiigDnfEX/ACHfDn/X23/oBroq53xF/wAh3w5/19t/6Aa6KqlsiI7v+ugUUUVJYUUUUAFFFFABRRRQAUUUUAFFFFABRRRQAUUUUAFFFFABRRRQAUUUUAFFFFABRRRQAUUUUAFFFFABRRRQAUUUUAFFFFABRRRQAUUUUAFFFFABRRRQAUUUUAFFFFABRRRQAUUUUAFFFFABRRRQAUUUUAFeP+O3YeLrsBmA2x9/9gV7BXjvjz/kb7z/AHY//QBXXgv4nyOLH/wvmc75j/32/OjzH/vt+dNor1LI8e7HeY/99vzo8x/77fnTaKLILsd5j/32/OjzH/vt+dNoosguxSzEgliSOnPSl8x/77fnTaKLILsd5j/32/OjzH/vt+dNoosgux3mP/fb86PMf++3502iiyC7HeY/99vzo8x/77fnTaKLILs960kk6NYknJ+zx/8AoIq5VPSP+QLYf9e8f/oIq5Xgy3PpI7IKKKKQwooooAKKKKACiiigAooooAKKKKACiiigAooooAKKKKACiiigAooooAKKKKACiiigAooooAKKKKACiiigAooooAKKKKACiiigAooooAKKKKACiiigAooooAKKKKACiiigArx3x5/yN95/ux/+gCvYq8d8ef8AI33n+7H/AOgCuvBfxPkcWP8A4S9Tm6KK6DwxI6x6uomMa/YXbdz8pBGDx3r05S5Vc8mEeZ2OfpSCMZBGeRkda6i6Glawkl281xixtolmliiUGdi20tg9+e/pTH0m3nt4pJr27eGPTjcxgqpKqHI2jnj1qParqX7F9DmaK6WfR7CzsNSkIllKwW8sLMQCokOcHjr/AEqrpsFsNDnvGR/tMd3CiSK2NoOT6e1P2iauheyadmYpBUkEEEdQaSux1TQodV1q8kgnkWU6gYZQ6jHKlsrjntXO6ha2cEUEtpctKH3CRCPuEH1wAePyojUUgnScblCiujl0CwWWSJLq4LQ2y3UpdVA2sqnAIzzlh26UkWg2Fw0n2W8lueAyRoAr42kkgMBvwRj5frR7WIexlsc7SlSpwQQfcVvNodr5crLNOCumrfLnHBJwVPH61o6tBbT219dXCPJPFY2mxt3TcBk9OtL2qvoP2LtdnH0UUVqZHvWkf8gWw/694/8A0EVcqnpH/IFsP+veP/0EVcrwJbn0kdkFFFFIYUUUUAFFFFABRRRQAUUUUAFFFFABRRRQAUUUUAFFFFABRRRQAUUUUAFFFFABRRRQAUUUUAFFFFABRRRQAUUUUAFFFFABRRRQAUUUUAFFFFABRRRQAUUUUAFFFFABRRRQAV4748/5G+8/3Y//AEAV7FXjvjz/AJG+8/3Y/wD0AV14L+J8jix/8JepzdWrPUbqwWZbZ1UTLskzGrbl9OQeKq0V6jSe546bWqLMF/cW1vPBE6iKcASqUU7gOnJFWBrmoLCIhMmwQ+QB5Kf6vrt6dM1nUUnGL3Q1KS2ZovrmovvDXAw8SwsBGoyg6Dp27HrUFrqV3ZRSRW8u2OQhmUqGBI6Hke9VaKOWO1h88r3uaT6/qbl2NzhnlEzMsaqS46NkDOar32pXepSrLdzeYy9PlAA/ADFVaKFGK2QOcno2aH9uaiL1LxbjbcInlh1RR8uMYIAwRj1o/tzUd5f7R85beG8tcqcYyvHy8emKz6KOSPYOeXc0E1zUkthbrcnyhH5WCik7Ou0nGSKV9c1GTzN1wP3kSxNiNRlR0HTt2PWs6ijkj2Dnl3CiiiqJPetI/wCQLYf9e8f/AKCKuVT0j/kC2H/XvH/6CKuV4Etz6SOyCiiikMKKKKACiiigAooooAKKKKACiiigAooooAKKKKACiiigAooooAKKKKACiiigAooooAKKKKACiiigAooooAKKKKACiiigAooooAKKKKACiiigAooooAKKKKACiiigAooooAK8d8ef8jfef7sf/oAr2KuN1/wI2t6xNfjURD5gUbDDuxgAddw9K6MLUjCd5HLi6cqlO0V1PK6K9B/4Vc//AEGF/wDAb/7Kj/hVz/8AQYX/AMBv/sq9D61S7nm/U63b8jz6ivQf+FXP/wBBhf8AwG/+yo/4Vc//AEGF/wDAb/7Kj61S7h9TrdvyPPqK9B/4Vc//AEGF/wDAb/7Kj/hVz/8AQYX/AMBv/sqPrVLuH1Ot2/I8+orsNR8BtYX2m239pB/tsxi3eRjZhSc/e56Vo/8ACrn/AOgwv/gN/wDZUfWqXcSwlZ9PyPPqK9B/4Vc//QYX/wABv/sqP+FXP/0GF/8AAb/7Kj61S7j+p1u35Hn1Feg/8Kuf/oML/wCA3/2VH/Crn/6DC/8AgN/9lR9apdw+p1u35Hn1Feg/8Kuf/oML/wCA3/2VH/Crn/6DC/8AgN/9lR9apdw+p1u35Hc6R/yBbD/r3j/9BFXKhtIPstlBb7t3lRqm7GM4GM1NXkPc9taIKKKKQwooooAKKKKACiiigAooooAKKKKACiiigAooooAKKKKACiiigAooooAKKKKACiiigAooooAKKKKACiiigAooooAKKKKACiiigAooooAKKKKACiiigAooooAKKKKACiiigAooooAKKKKACiiigAqvfwS3VhPBBO0EroQkq9UPY1Yqte6haadD5t1Osa9s9T9B1NGwpNJa7HiGqarr1vqQhvr24+02ch27nJKN6j8K9M8CR6vLpjahqt5PL9ox5McjZ2qP4vx/lXL+Jbiy13Wbe9Sz2pEQJN7YM6g9Djp6fjXd6T4i0/UVSFCLeYDAhfA/757GumrXjKCSWp5mFnTdVrnv28zZooormPUCiiigAooooAKKKKACiiigAooooAKKKKACiiigAooooAKKKKACiiigAooooAKKKKACiiigAooooAKKKKACiiigAooooAKKKKACiiigAooooAKKKKACiiigAooooAKKKKACiiigAooooAKKKKACiiigAooooAKKKZJLHDG0krqiKMlmOAKAH1Fc3UFnCZriVIox1ZjiuY1TxpFHui01BM/TznGEH0HU/pXI3d5c383nXczyv23HhfoOgpXPPr5jTp6Q1f4HT6p40ZsxaZHgf895R/Jf8fyrlJp5rmYzTyvLKerucmmUUjxa2JqVn77CgjPWiigwNzS/FN/p22OVvtUA42yH5gPZv8a7PTNcsdVXEEu2XGTE/DD8O/4V5hQCQwYEhgcgg4IPtTud9DMKtLSWqPYaK4HS/F95aYjvAbqH+9nEg/Hv+P512Wn6rZ6pFvtZlcj7yHhl+opntUMVSrfC9excooooOgKKKKACiiigAooooAKKKKACiiigAooooAKKKKACiiigAooooAKKKKACiiigAooooAKKKKACiiigAooooAKKKKACiiigAooooAKKKKACiiigAooooAKKKKACiiigAooooAKKKKACiiigApCQoJJAA5JPasPVPFVjp5aKI/abgcbIz8qn3auL1PWr7VSRcS4i7Qpwn4+v40rnFXx1KjpuzrdU8YWlruisgLqUcbgcIPx7/h+dcbf6neanJvu5y4ByqDhF+g/yaqVNFZ3E8TSxQs0anDMOg+tB41bF1q7t07Ihop8sMkDBZUKMRkA9x60ykcrVtwooooEFFFFABRRRQAU6OR4ZVlido5F+66HBH406aGS3lMUq7XGMjOadFaXEyF4oXdRnJUZ6daCkpJ6bnSaX4zmh2xaihmTp5yDDD6jofwrr7O+tr+ETWsySp6qensR2ryapbe4ntJhNbSvFIP4kOPz9adz0MPmU4aVNV+J65RXH6X40HyxanHjt58Y4/Ff8K6yC4huoVmglSWNujIcg0z2aNenWV4MkooooNgooooAKKKKACiiigAooooAKKKKACiiigAooooAKKKKACiiigAooooAKKKKACiiigAooooAKKKKACiiigAooooAKKKKACiiigAooooAKKKKACiiigAooooAKKKKACuX8U2mt3AJtHL2ePmhiOH/H+8PYflXUUUGdWmqkXFu3oePY25XGCOCCMEUV6dqeg2GqgmaLbNjiWPhh/j+NcXqnhe/07dIi/abcfxxj5gPdf8M0rHg18vq0tY6oxa19NTOh6oWid1/dcLxn5vXFZAOelOWWRBhZHUegYikcdOXK7vz/ABRtLaxG0u7prBmVFiMKSM3AJwc47ZyasXGkxW80rQ2LXCi52PHuIMabQRz25J5PpXPedLknzZOf9o0hlkJJMjkkYPzHmmbe2hb4fy8/I25F0+y/s/z9PVo54w0jl2yPmIOOcdMGnpp9tDdSWclvHPMkMs25GbnugGD6c/jWLDOElVp4/tEaj/Vu5A/SrEGpNFdT3Dxb3mRk4baFBGOPoOlA41YdUvu/4Brpbwi0uGgtFWaWyDtDyxU78cZOQCOapaJYx3QZ5bfzUE0cZPJIyeeB/Mnisne+4tvbJ6nPJpFdlztZhnrg4oJ9tFyTcdjoYtLtooi01pIyCSZX+Vy3H3duOPrmmHS4zpMkv2QiVYElUruOctzz06dh09aow6s0MESCI+ZHnDrKy5Oc5YDrVFppWYkyNknPWguVWklouh0Fxp9tbveFbDeIpYVRSXwAw571C7S6bqN35SO0Niz+SpHCF+OT6VjefN/z2k/77NNLu2cuxz1yetBMq8d4q39P/gfcNooq1YabeanJstIGkwcM54Vfqf8AJpGEYym7RV2Va2NAtNYlnE2mF4UJ+aVuIz9R/F+FdJpfg61tdst8wuZRztxiMfh3/H8q6RVCqFUAADAA7U7HrYbLpJqdR29P8xEDCNQ5BfA3EDAJp1FFM9kKKKKACiiigAooooAKKKKACiiigAooooAKKKKACiiigAooooAKKKKACiiigAooooAKKKKACiiigAooooAKKKKACiiigAooooAKKKKACiiigAooooAKKKKACiiigAooooAKKKKAMbVPDNhqZaTb5Fwf+WsY6/UdD/OuL1PQL/SiWlj82Af8toxkfiOo/l716bQRkYNFjjr4KlW12fc8eor0DVPCVlfbpbb/AEWc85QfIx91/wAK43UdIvtKfF1CQmcCVeUP49vxpHi18FVo6tXXco0UUUjkCiiigAoop8MMtzMIYInlkPREGTQNJt2Qyp7Szub6bybWF5X7hRwPqegrp9L8Fs2JdTk2j/nhGefxb/D86622tbezhENtCkUY/hUYp2PSoZbOetTRficzpfguOPbLqUnmt18lDhR9T1P6V1MUUcESxxIqIowFUYAp9FM9mlQp0laCsFFFFBqFFFFABRRRQAUUUUAFFFFABRRRQAUUUUAFFFFABRRRQAUUUUAFFFFABRRRQAUUUUAFFFFABRRRQAUUUUAFFFFABRRRQAUUUUAFFFFABRRRQAUUUUAFFFFABRRRQAUUUUAFFFFABRRRQAUUUUAFI6LIhR1DKRggjINLRQBy+qeDba43S6ewt5OvlnmM/wCH4flXH3un3enS+XdwNGT0bqrfQ9DXrFRzQRXMTRTxpJG3BVxkGlY4MRl9OprHRnkVKitI6ois7scKqjJP0FdnfeCYpbuJ7KcwQFj5qN8xA/2P/r1vado9jpaYtYQHP3pG5ZvqaLHBTyyo5Wm7I5TS/BtzcbZdQc28fXy15c/U9B+tdhY6daadD5VpAsa9yOrfU9TVqimetQw1OivcWvcKKKKDoCiiigAooooAKKKKACiiigAooooAKKKKACiiigAooooAKKKKACiiigAooooAKKKKACiiigAooooAKKKKACiiigAooooAKKKKACiiigAooooAKKKKACiiigAooooAKKKKACiiigAooooAKKKKACiiigAooooAKKKKACuev9eudJ8QJBeJG2lyov8ApCKQYHZiFD8kFSRjPGDjNdDWZNp8l1qVz9qht5LCe2EDIzEs2CScjGMfN69qAEg1CSFro388O1bjyYViiYM3yg4xkljz2Hartpd299brcW0qyxMSAw9QcEH0IPasCDwzc2KWbW9750lldPLF55PzRsmzYxHOQvRuela2kacdOhuN7BpLm4e4k2/dDMeg9un1oA0KKKKACiiigAooooAKKKKACiiigAooooAKKKKACiiigAooooAKKKKACiiigAooooAKKKKACiiigAooooAKKKKACiiigAooooAKKKKACiiigAooooAKKKKACiiigAooooAKKKKACiiigAooooAKKKKACiiigAooooAKKKKACiiigAooooAKKKKACiiigAooooAKKKKACiiigAooooAKKKKACiiigAooooAKKKKACiiigAooooAKKKKACiiigAooooAKKKKACiiigAooooAKKKKACiiigAooooAKKKKACiiigAooooAKKKKACiiigAooooAKKKKACiiigAooooAKKKKACobi6t7RN9xPHCvrIwUfrWX4j15dFtAIwrXUufLU9AP7x9q80urue9nae5laWQ/xMf5eg9qynVUdD08Fls8Sudu0T1E+JNGBI/tGDj/ao/4STRv+gjB/31XlFFZe3fY9H+w6f8zPV/8AhJNG/wCgjB/31Uc3ijRoYHk+3RybFLbEOWbHYD1ryyij277B/YdP+dnqNt4r0e5tkmN4sO8Z8uXhh9RU3/CSaN/0EYP++q8oop+3fYFkdP8AnZ6v/wAJJo3/AEEYP++qB4k0Yn/kIwf99V5RRS9u+wf2HT/nZ7Lb3dtdpvtp4pl9Y2DfyqavGbe5ntJ1mt5XikXoynBr0jw14gGs27RzALdxD5wOjj+8P61rCqpaHnY3LJ4dc8XeP5G9RRRWp5gUUUUAFFFFABRRRQAUUUUAFFFFABRRRQAUUUUAFFFFABRRRQAUUUUAFFFFABRRRQAUUUUAFFFFABRRRQAUUUUAFFFFABRRRQAUUUUAFFFFABRRRQAUUUUAFFFFABRRRQAUUUUAFFFFABRRRQB5R4ivWv8AXbqQnKq5jT2VeP8AE/jWXU94Ct9cBuokYH8zUFefJ3bZ93QioUoxjskgq7o8MdxrNnDKgeN5VVlPQiqVS2txJaXUVxFjzI2DLkZGRQtyqibg0t7GxcQRTXK2qnTFEk4jzbq3mKC2O/FC6FbzyYtruQrHO0MrPGBjapYsMHngGqLaq5lWVbS0jlVxIHSMg5Bz60kWrXcDFo2VSZ/PPy/xYIP4YJ4qrx6nL7Oso+67E+oW9nHpFjNabm8x5Azuu1jjGAcEisqrl3qMt5DFC0cMcURYosSbQM9ap1LtfQ6KMZRjaW+v5hRRRSNQrQ0O9aw1m1nBIG8K/up4P+P4Vn1JACbiMDqWAFNOzuZ1YqdOUZbNHs9FFFegfBhRRRQAUUUUAFFFFABRRRQAUUUUAFFFFABRRRQAUUUUAFFFFABRRRQAUUUUAFFFFABRRRQAUUUUAFFFFABRRRQAUUUUAFFFFABRRRQAUUUUAFFFFABRRRQAUUUUAFFFFABRRRQAUUUUAFFFFAHmni/TWsdZecKfJuT5in/a/iH58/jXP17BqWnW+qWbW1wuVPIYdVPqK881LwnqdjIfLha5hz8rxDJx7r1FctWm07o+ny7Macqap1HZr8TCoqwbG7Bx9kuP+/Tf4Un2K7/59bj/AL9N/hWNmer7Wn/MvvIKKn+xXf8Az63H/fpv8KPsV3/z63H/AH6b/CizD2tP+ZfeQUVP9iu/+fW4/wC/Tf4UfYrv/n1uP+/Tf4UWYe1p/wAy+8goqf7Fd/8APrcf9+m/wo+w3Z/5dbj/AL9N/hRZh7Wn/MvvIK3PCmmtqGtROV/c25Ern6dB+f8AI0ad4U1S/kG+BreLvJMMfkOpr0LS9Lt9Is1t7cH1dz1c+prWnTbd2eXmOY04U3Tpu8n+BdooorrPlwooooAKKKKACiiigAooooAKKKKACiiigAooooAKKKKACiiigAooooAKKKKACiiigAooooAKKKKACiiigAooooAKKKKACiiigAooooAKKKKACiiigAooooAKKKKACiiigAooooAKKKKACiiigAooooAKKKKACiiigAooooAKKKKACiiigAooooAKKKKACiiigAooooA//9k=;strokeColor=none;strokeWidth=102;spacingTop=-3;spacingBottom=-3;spacingLeft=-3;spacingRight=-3;rounded=0;html=1;whiteSpace=wrap;" parent="1" vertex="1">
          <mxGeometry width="1059" height="1585" as="geometry" />
        </mxCell>
      </root>
    </mxGraphModel>
  </diagram>
</mxfile>
